<svg width="120" height="120" viewBox="0 0 120 120" fill="none" xmlns="http://www.w3.org/2000/svg">
<g clip-path="url(#clip0_48_2160)">
<path d="M0 60C0 26.8629 26.8629 0 60 0C93.1371 0 120 26.8629 120 60C120 93.1371 93.1371 120 60 120C26.8629 120 0 93.1371 0 60Z" fill="#F8D79C"/>
<path d="M113.4 67.1999C113.4 96.5651 89.614 120.4 60.1999 120.4C30.8347 120.4 7 96.5651 7 67.1999C7 37.8347 30.8347 14 60.1999 14C89.614 14 113.4 37.8347 113.4 67.1999Z" fill="#F8D79C"/>
<path d="M91.8165 74.2474C91.6208 71.5067 90.593 68.2276 88.2437 66.4656C87.7054 66.0741 87.1181 65.7315 86.5797 65.2911C85.4541 64.4101 84.7199 63.0887 84.6221 61.6693C84.5242 60.6905 84.7199 59.6627 84.7689 58.6349C84.8178 56.3836 83.9369 54.1323 82.2729 52.5172C81.0493 51.2447 79.8747 50.5106 79.2384 48.7487C78.798 47.3783 78.6511 45.959 78.4554 44.5397C78.0638 41.9947 77.2808 39.6944 76.1062 37.6389C73.708 28.1441 64.5559 21.6348 54.5717 22.9073C43.7555 24.2288 36.0227 34.0661 37.3931 44.8823L38.1762 51.3915C38.2251 52.0278 38.2251 52.713 38.1272 53.3492C37.9315 55.1601 36.9526 56.1878 36.0227 57.6561C34.7502 59.6138 34.3587 62.0119 34.946 64.2143C35.1907 65.1932 35.6312 66.1231 35.778 67.1508C35.9248 68.5212 35.5333 69.9895 34.6523 71.1151C34.2118 71.6535 33.7224 72.094 33.282 72.5834C31.3732 74.8347 31.0796 78.2607 31.5201 81.0014C31.7648 82.9101 33.282 82.1271 34.897 81.8824C36.8221 81.5561 38.7472 81.2787 40.6722 81.0503C47.622 80.1694 54.6206 79.7289 61.6683 79.2884C61.7335 79.2884 61.7988 79.2884 61.8641 79.2884C61.9293 79.2884 61.9946 79.2721 62.0598 79.2395C68.9606 78.1138 75.9104 77.0371 82.9091 76.3519C84.8341 76.1562 86.7755 75.993 88.7332 75.8625C90.3483 75.7646 91.9634 76.2051 91.8165 74.2474Z" fill="#570D0C"/>
<path d="M46.9368 85.3083L71.5057 85.0636L71.3099 66.8572L46.7411 67.1508L46.9368 85.3083Z" fill="#F6B2A0"/>
<path fill-rule="evenodd" clip-rule="evenodd" d="M46.9367 85.7979C46.8062 85.7979 46.692 85.7489 46.5941 85.6511C46.4962 85.5532 46.4473 85.439 46.4473 85.3085L46.2515 67.151C46.2026 66.8574 46.4473 66.6616 46.692 66.6616L71.3098 66.3679C71.4077 66.3679 71.5545 66.4169 71.6524 66.5148C71.7503 66.6127 71.7992 66.7268 71.7992 66.8573L71.995 85.0637C71.995 85.3085 71.7503 85.5532 71.5056 85.5532L46.9367 85.7979ZM47.2303 67.6404L47.3772 84.819L71.0161 84.5743L70.8204 67.3468L47.2303 67.6404Z" fill="#570D0C"/>
<path d="M63.9197 73.2196C63.9197 73.2196 53.495 80.512 46.8879 81.2951L46.7411 68.4233L63.9197 73.2196Z" fill="#570D0C"/>
<path d="M81.3429 50.7064C80.9514 47.3783 77.8681 44.9802 74.4911 45.3717L74.2953 45.4206L75.5678 55.7963C75.6331 56.4163 75.6657 57.0199 75.6657 57.6072L76.0083 57.5582C79.3852 57.1667 81.7834 54.0834 81.3429 50.7064Z" fill="#F6B2A0"/>
<path fill-rule="evenodd" clip-rule="evenodd" d="M75.6657 58.0966C75.5678 58.0966 75.4699 58.0639 75.3721 57.9987C75.2742 57.9008 75.1763 57.754 75.1763 57.6072C75.1763 57.0198 75.1437 56.4489 75.0784 55.8942L73.8059 45.4696C73.7733 45.339 73.8059 45.2248 73.9038 45.127C73.9527 44.9801 74.0996 44.9312 74.1975 44.9312L74.4422 44.8822C78.0639 44.4418 81.3919 47.0357 81.8324 50.6574C82.0771 52.4193 81.5877 54.1812 80.511 55.5516C79.3853 56.9709 77.8192 57.8518 76.0573 58.0476L75.7147 58.0966C75.7147 58.0966 75.6984 58.0966 75.6657 58.0966ZM74.8337 45.8121L76.0573 55.7474C76.0899 56.1715 76.1225 56.612 76.1551 57.0688C79.1406 56.5794 81.2451 53.7897 80.8536 50.8042C80.511 47.7698 77.8192 45.6164 74.8337 45.8121Z" fill="#570D0C"/>
<path d="M40.7212 49.5317H40.5254C37.1484 49.9722 34.7502 53.0066 35.1418 56.3836C35.5823 59.7606 38.6167 62.1588 41.9936 61.7672L42.3362 61.7183C42.2057 61.131 42.0915 60.5437 41.9936 59.9564L40.7212 49.5317Z" fill="#F6B2A0"/>
<path fill-rule="evenodd" clip-rule="evenodd" d="M41.2594 62.3056C39.7912 62.3056 38.3229 61.8162 37.1483 60.8863C35.7779 59.7607 34.897 58.1945 34.6523 56.4326C34.4565 54.7196 34.9459 52.9578 36.0227 51.5874C37.0994 50.1681 38.6655 49.2871 40.4274 49.0424H40.6721C40.819 48.9935 40.9168 49.0424 41.0147 49.1403C41.1452 49.2055 41.2105 49.3197 41.2105 49.4829L42.483 59.8585C42.5808 60.4459 42.6787 60.9842 42.8256 61.5715C42.8256 61.7183 42.8256 61.8652 42.7277 61.963C42.6298 62.1099 42.5319 62.1588 42.3851 62.2078H42.0425C41.7815 62.273 41.5204 62.3056 41.2594 62.3056ZM40.3295 50.0702C38.9102 50.3149 37.6867 51.049 36.8057 52.1747C35.8758 53.3493 35.4353 54.8175 35.6311 56.3347C35.8269 57.8519 36.561 59.1734 37.7846 60.1033C38.9102 60.9842 40.3295 61.4247 41.7488 61.2779C41.651 60.8537 41.5857 60.4295 41.5531 60.0054L40.3295 50.0702Z" fill="#570D0C"/>
<path d="M75.5678 55.7964L74.2953 45.4207L73.9038 42.4842C73.8059 41.5543 73.6101 40.6734 73.3164 39.7924L73.5122 41.016C69.0096 39.5966 65.241 36.758 62.8918 32.9895C60.8852 37.8837 55.3058 44.2951 40.2806 45.0781C40.2806 45.6002 40.3133 46.1059 40.3785 46.5954L40.7211 49.5319L41.9936 59.9565C42.0915 60.5438 42.2057 61.1311 42.3362 61.7184C44.2449 70.0385 52.1735 75.7158 60.8363 74.6391C69.499 73.5624 75.8125 66.1232 75.6657 57.6073C75.6657 57.02 75.633 56.4164 75.5678 55.7964Z" fill="#F6B2A0"/>
<path fill-rule="evenodd" clip-rule="evenodd" d="M58.7318 75.2752C50.7542 75.2752 43.7066 69.7937 41.8468 61.8162C41.7 61.18 41.6021 60.5926 41.5532 60.0053L39.8891 46.6932C39.8402 46.2037 39.7912 45.7143 39.7912 45.0781C39.7912 44.8333 39.987 44.5886 40.2317 44.5886C54.8654 43.8056 60.3958 37.7368 62.4514 32.8426C62.5493 32.6468 62.6961 32.5489 62.8918 32.5C63.0387 32.5 63.2344 32.5979 63.3323 32.7447C65.4858 36.2196 68.8627 38.8624 72.9249 40.2818L72.876 39.8413C72.8271 39.5966 72.9739 39.3519 73.2186 39.3029C73.5122 39.254 73.7569 39.4008 73.8059 39.6455C74.0995 40.6243 74.2953 41.5543 74.3932 42.4352L76.0572 55.7474C76.1225 56.3674 76.1551 56.9873 76.1551 57.6072C76.3019 66.5146 69.7437 74.0517 60.8852 75.1284C60.1674 75.2263 59.4496 75.2752 58.7318 75.2752ZM40.7701 45.5185C40.8027 45.9101 40.8353 46.2527 40.868 46.5463L42.483 59.8585C42.5809 60.4458 42.6788 60.9842 42.8256 61.5715C44.6854 69.7937 52.4183 75.1774 60.7873 74.1496C69.1564 73.1218 75.3231 66.0252 75.1763 57.6072C75.1763 57.0199 75.1436 56.4489 75.0784 55.8942L73.4143 42.5331C73.3817 42.1742 73.3328 41.8153 73.2675 41.4564C69.0096 40.086 65.3879 37.4921 62.9897 34.0172C60.5916 39.0093 54.7675 44.6865 40.7701 45.5185Z" fill="#570D0C"/>
<path d="M64.1644 51.5384C64.2134 52.2236 64.8986 52.7619 65.5837 52.664C66.3179 52.5662 66.8073 51.9299 66.7094 51.1958C66.6605 50.5106 65.9753 49.9722 65.2901 50.0701C64.556 50.168 64.0666 50.8043 64.1644 51.5384Z" fill="#570D0C"/>
<path d="M48.7965 54.7685C48.7965 54.7685 49.9221 53.5449 51.6351 54.4748L48.7965 54.7685Z" fill="#E5968E"/>
<path d="M48.7966 55.1112C48.6987 55.1112 48.6009 55.0786 48.503 55.0134C48.3561 54.8665 48.3561 54.6218 48.503 54.475C48.9924 53.9856 50.2649 53.3004 51.831 54.1813C51.9778 54.2792 52.0268 54.475 51.9289 54.6708C51.831 54.8176 51.6353 54.9155 51.4395 54.8176C50.0202 53.9856 49.0903 54.9644 49.0413 55.0134C48.9761 55.0786 48.8945 55.1112 48.7966 55.1112Z" fill="#570D0C"/>
<path d="M64.3602 53.0067C64.3602 53.0067 65.5348 51.7832 67.1988 52.7131L64.3602 53.0067Z" fill="#E5968E"/>
<path d="M64.3601 53.3493C64.2622 53.3493 64.1807 53.3166 64.1154 53.2514C63.9686 53.1046 63.9686 52.9088 64.1154 52.762C64.5559 52.2726 65.8773 51.5384 67.3945 52.4194C67.5903 52.5173 67.6392 52.762 67.5413 52.9088C67.4435 53.1046 67.1987 53.1535 67.0519 53.0556C65.6326 52.2726 64.6538 53.2025 64.6538 53.2514C64.5559 53.3166 64.458 53.3493 64.3601 53.3493Z" fill="#570D0C"/>
<path d="M48.6988 53.4473C48.7966 54.1324 49.4329 54.6219 50.1181 54.5729C50.8522 54.475 51.3416 53.8388 51.2927 53.1047C51.1948 52.3705 50.5585 51.8811 49.8244 51.979C49.0903 52.0769 48.6009 52.7131 48.6988 53.4473Z" fill="#570D0C"/>
<path d="M78.2106 52.86C78.1453 52.86 78.0801 52.8437 78.0148 52.811L76.6934 51.979C76.5466 51.8811 76.4487 51.7343 76.4487 51.5385C76.4487 51.3428 76.4976 51.1959 76.6444 51.0491L77.868 49.9234C78.0148 49.8256 78.2106 49.8256 78.3574 49.9724C78.5042 50.1192 78.5042 50.3639 78.3574 50.4618L77.2807 51.4406L78.4063 52.1748C78.5532 52.3216 78.6021 52.5174 78.5042 52.7131C78.4553 52.811 78.3085 52.86 78.2106 52.86Z" fill="#570D0C"/>
<path fill-rule="evenodd" clip-rule="evenodd" d="M38.4698 57.754C38.372 57.754 38.2741 57.7214 38.1762 57.6561C38.0294 57.5093 38.0294 57.2646 38.1762 57.1178L39.1061 56.1389L37.8336 55.4537C37.6378 55.3559 37.5889 55.1111 37.6868 54.9643C37.7846 54.7686 37.9804 54.7196 38.1762 54.8175L39.6444 55.6006C39.7913 55.6984 39.8892 55.8453 39.9381 56.041C39.9381 56.1879 39.8891 56.3837 39.7913 56.4815L38.7146 57.6072C38.6493 57.7051 38.5677 57.754 38.4698 57.754Z" fill="#570D0C"/>
<path d="M61.7662 45.5187C62.1578 45.7634 62.6962 45.7634 63.1856 45.8123C63.7239 45.8613 64.2623 45.9102 64.7517 45.9592C65.1922 46.0571 65.7305 46.1549 66.22 46.2528C66.7583 46.3507 67.2967 46.4486 67.7372 46.3507C68.1287 46.2039 68.3734 45.7634 67.9819 45.1272C67.6393 44.4909 66.5626 43.7078 65.0454 43.4631C63.5282 43.2674 62.3046 43.7079 61.7662 44.2462C61.2768 44.7846 61.3747 45.274 61.7662 45.5187Z" fill="#570D0C"/>
<path d="M51.9288 46.5953C51.6352 46.9379 51.0968 47.0847 50.6074 47.2805C50.069 47.4273 49.5796 47.6231 49.1391 47.8188C48.6987 47.9657 48.2092 48.1614 47.7688 48.4062C47.2793 48.6509 46.7899 48.8956 46.3005 48.8466C45.909 48.8466 45.5664 48.4551 45.7621 47.721C45.9579 47.0358 46.7899 46.008 48.2582 45.4207C49.6775 44.8823 50.95 45.0291 51.5862 45.4207C52.2225 45.7633 52.2225 46.3016 51.9288 46.5953Z" fill="#570D0C"/>
<path d="M63.6258 57.9987C63.1854 57.8519 62.647 57.9987 62.4023 58.3903C61.8639 59.1244 60.6893 60.3969 58.7316 61.0331C58.2422 61.18 58.0954 61.7672 58.389 62.2077C59.0742 63.0887 60.5915 64.3122 62.9407 62.5993C65.7793 60.5437 64.8004 58.4881 63.6258 57.9987Z" fill="#F6F5F3"/>
<path fill-rule="evenodd" clip-rule="evenodd" d="M60.7385 63.9698C59.2702 63.9698 58.3403 62.942 57.9977 62.5015C57.753 62.1589 57.7041 61.7184 57.8509 61.3269C57.9488 60.9354 58.2424 60.6417 58.585 60.5438C60.3959 60.0055 61.4726 58.7819 62.011 58.0967C62.4025 57.5094 63.1856 57.3136 63.8218 57.5584C64.6049 57.9009 65.1432 58.6351 65.2411 59.516C65.339 60.2012 65.1922 61.5716 63.2345 62.9909C62.2557 63.7251 61.4237 63.9698 60.7385 63.9698ZM63.2345 58.4393C63.0877 58.4393 62.8919 58.5372 62.794 58.684C62.2067 59.4671 60.9342 60.8375 58.8787 61.4737C58.8134 61.5063 58.7808 61.5553 58.7808 61.6206C58.7319 61.7184 58.7319 61.8163 58.7808 61.9142C59.3681 62.6483 60.6406 63.725 62.6472 62.2078C63.8218 61.3758 64.3602 60.4459 64.2623 59.6139C64.2133 58.9777 63.7729 58.6351 63.4303 58.4883C63.365 58.4556 63.2998 58.4393 63.2345 58.4393Z" fill="#570D0C"/>
<path d="M57.5572 56.6773C56.9209 56.6773 56.2847 56.4816 55.6974 56.139C54.9632 55.6495 54.4738 54.8665 54.327 53.9855C54.2291 53.6429 54.327 53.2514 54.5228 52.9577C54.7186 52.6641 55.0122 52.4683 55.4037 52.3704C56.0889 52.2725 56.5294 51.5874 56.3826 50.9022L55.8932 48.4061C55.8442 48.1125 56.04 47.8678 56.2847 47.8188C56.5294 47.7699 56.823 47.9656 56.872 48.2104L57.3614 50.7064C57.4593 51.2937 57.3614 51.881 57.0188 52.4194C56.6762 52.9088 56.1868 53.2514 55.5995 53.3493C55.469 53.3819 55.3711 53.4308 55.3058 53.4961C55.2732 53.594 55.2569 53.6919 55.2569 53.7898C55.5016 55.1112 56.7741 55.9432 58.0466 55.6985L59.0254 55.4538C59.3191 55.4538 59.5638 55.6006 59.6127 55.8453C59.6617 56.1389 59.5148 56.3837 59.2212 56.4326L58.2424 56.6284C58.014 56.661 57.7856 56.6773 57.5572 56.6773Z" fill="#570D0C"/>
<path d="M78.4554 44.8335L73.4634 45.6656C72.6313 45.8124 71.8483 45.274 71.7014 44.442L71.5546 43.4632C71.4078 42.6312 71.9461 41.8481 72.8271 41.7013L77.7702 40.8693C78.6023 40.7224 79.3853 41.2608 79.5321 42.1417L79.679 43.0716C79.8258 43.9037 79.2874 44.6867 78.4554 44.8335Z" fill="#FD9801"/>
<path fill-rule="evenodd" clip-rule="evenodd" d="M73.2186 46.2037C72.7782 46.2037 72.3866 46.0568 72.044 45.8121C71.6035 45.5185 71.3099 45.0291 71.212 44.4907L71.0652 43.5608C70.9673 43.0224 71.1141 42.4841 71.4078 42.0436C71.7014 41.6031 72.1908 41.3095 72.7292 41.2116L77.6723 40.3796C78.2107 40.2817 78.749 40.4285 79.1895 40.7222C79.63 41.0158 79.9237 41.5052 80.0215 42.0436L80.1684 42.9735C80.2662 43.5118 80.1684 44.0502 79.8258 44.4907C79.5321 44.9312 79.0427 45.2248 78.5044 45.3227L73.5612 46.1547C73.4307 46.1873 73.3165 46.2037 73.2186 46.2037ZM78.0149 41.3095C77.9497 41.3095 77.8844 41.3258 77.8192 41.3584L72.876 42.1904C72.6313 42.2394 72.3866 42.3862 72.1908 42.582C72.044 42.8267 71.9951 43.1203 72.044 43.365L72.1908 44.3438C72.2398 44.6375 72.3866 44.8822 72.6313 45.029C72.8271 45.1759 73.1207 45.2738 73.4144 45.2248L78.3575 44.3438C78.6512 44.3438 78.8469 44.1481 79.0427 43.9523C79.1895 43.7076 79.2385 43.414 79.1895 43.1693L79.0427 42.1904C78.9938 41.9457 78.847 41.701 78.6022 41.5052C78.4391 41.3747 78.2433 41.3095 78.0149 41.3095Z" fill="#570D0C"/>
<path d="M8.02801 116.974L7.58752 136.648H111.344C111.344 136.648 111.1 116.093 111.051 115.848C110.463 102.438 100.92 91.0345 87.7055 88.098L70.9673 84.4763L46.1538 84.721L32.2543 87.3639C18.0611 90.0557 7.88119 102.536 8.02801 116.974Z" fill="#9D8039"/>
<path fill-rule="evenodd" clip-rule="evenodd" d="M111.344 137.138H7.58753C7.45702 137.138 7.34282 137.089 7.24493 136.991C7.14705 136.942 7.09811 136.795 7.09811 136.648L7.5386 116.974C7.39178 102.291 17.7185 89.6152 32.1564 86.8745L46.0559 84.2316L70.9673 83.9869C71.0326 83.9542 71.0815 83.9542 71.1142 83.9869L87.8034 87.6575C101.165 90.5451 110.953 102.144 111.54 115.848C111.589 116.044 111.834 134.544 111.834 136.648C111.834 136.779 111.785 136.893 111.687 136.991C111.589 137.089 111.475 137.138 111.344 137.138ZM8.12591 136.159H110.855C110.757 129.013 110.61 116.142 110.561 115.897C109.974 102.634 100.528 91.4261 87.5587 88.5874L70.9184 84.9657L46.1538 85.2104L32.3522 87.8533C18.3548 90.4962 8.37062 102.732 8.51744 116.974L8.12591 136.159Z" fill="#570D0C"/>
<path d="M46.9857 79.729C55.159 84.819 64.5559 84.819 72.7292 79.729C73.3165 79.3375 74.0506 79.778 74.0506 80.4632V84.3295C74.0506 84.6232 73.9037 84.9169 73.659 85.1126C64.9963 91.0836 54.7185 91.0836 46.0558 85.1126C45.8111 84.9169 45.6642 84.6232 45.6642 84.3295V80.4632C45.6642 79.778 46.4473 79.3375 46.9857 79.729Z" fill="#9D8039"/>
<path fill-rule="evenodd" clip-rule="evenodd" d="M59.8574 90.0557C55.0122 90.0557 50.1669 88.5385 45.7621 85.5041C45.4196 85.2594 45.1748 84.8189 45.1748 84.3294V80.4631C45.1748 79.9736 45.4685 79.4842 45.909 79.2395C46.3494 78.9948 46.8389 79.0437 47.2794 79.2884C55.2569 84.3295 64.458 84.3295 72.4355 79.2884C72.876 79.0437 73.4144 78.9948 73.8548 79.2395C74.2953 79.4842 74.54 79.9736 74.54 80.4631V84.3294C74.54 84.8189 74.3443 85.2104 73.9527 85.5041C69.5479 88.5385 64.7027 90.0557 59.8574 90.0557ZM46.5452 80.0715C46.4473 80.0715 46.3984 80.0715 46.3495 80.1205C46.3005 80.1205 46.1537 80.2673 46.1537 80.4631V84.3294C46.1537 84.4763 46.2026 84.6231 46.3495 84.672C54.8164 90.4961 64.8984 90.4961 73.4143 84.672C73.5122 84.6231 73.5612 84.4763 73.5612 84.3294V80.4631C73.5612 80.2673 73.4144 80.1205 73.3654 80.1205C73.3165 80.0715 73.1696 80.0226 72.9739 80.1205C64.6537 85.3572 55.0611 85.3572 46.741 80.1205C46.6757 80.0878 46.6105 80.0715 46.5452 80.0715Z" fill="#570D0C"/>
<path d="M108.163 62.9419L101.752 58.3903C101.752 58.3903 110.806 48.8956 106.939 46.057L106.891 46.008C105.912 45.5186 104.688 45.8123 104.003 46.6932C102.73 48.3572 100.871 50.8533 99.2067 53.0067C99.6961 52.2726 100.137 51.5874 100.283 51.3427C102.73 46.7422 102.437 43.6588 100.381 43.2673C97.7874 42.68 93.8231 51.4406 86.9222 58.4882C80.0214 65.4869 82.3217 79.0928 82.3217 79.0928V79.778C82.028 82.8124 80.364 107.479 80.5108 112.373C80.6087 116.24 81.0492 120.547 83.7899 123.532C86.6775 126.664 91.4738 127.301 95.6828 126.762C103.856 125.685 108.555 120.008 107.429 111.737C106.793 107.234 102.192 74.3943 102.192 74.3943L108.163 62.9419Z" fill="#F6B2A0"/>
<path fill-rule="evenodd" clip-rule="evenodd" d="M93.04 127.398C88.9778 127.398 85.6008 126.175 83.4474 123.875C80.6577 120.84 80.1683 116.582 80.0214 112.422C79.8746 107.577 81.4897 82.9102 81.8323 79.7289V79.1416C81.7344 78.6033 79.581 65.2421 86.5797 58.1455C89.6141 55.0622 92.0612 51.6363 94.0678 48.8466C96.9064 44.9801 98.7173 42.3862 100.528 42.7778C101.262 42.9246 101.85 43.3651 102.192 44.0992C102.633 45.1759 102.584 46.6931 102.045 48.504C102.045 48.4713 102.045 48.455 102.045 48.455L103.611 46.3995C104.443 45.3227 105.912 44.9802 107.135 45.6164L107.233 45.6653C107.918 46.1548 108.31 46.8399 108.408 47.7209C108.701 51.1958 103.905 56.7752 102.486 58.3413L108.457 62.5014C108.652 62.6482 108.701 62.9418 108.604 63.1376L102.731 74.4432C103.024 76.8903 107.282 107.381 107.869 111.688C108.457 115.75 107.625 119.372 105.569 122.113C103.416 124.902 99.9898 126.713 95.7318 127.252C94.8182 127.349 93.921 127.398 93.04 127.398ZM100.137 43.7077C99.0109 43.7077 97.1022 46.3505 94.8508 49.4339C92.8442 52.2236 90.3482 55.6984 87.2648 58.8307C80.6087 65.5847 82.7622 78.8969 82.7622 79.0437L82.8111 79.7779C82.4685 83.008 80.8534 107.577 81.0003 112.373C81.1471 116.337 81.5876 120.4 84.1326 123.189C86.5307 125.783 90.7397 126.909 95.6339 126.273C99.5982 125.734 102.779 124.119 104.786 121.525C106.695 118.98 107.429 115.603 106.939 111.786C106.303 107.332 101.703 74.4432 101.703 74.4432C101.703 74.3453 101.719 74.2474 101.752 74.1495L107.527 63.0887L101.507 58.7818C101.36 58.7328 101.311 58.586 101.262 58.4392C101.262 58.2924 101.311 58.1945 101.409 58.0476C101.458 57.9987 107.723 51.3916 107.429 47.8188C107.364 47.2315 107.119 46.7747 106.695 46.4484C105.863 46.0569 104.933 46.2526 104.395 46.9868L102.828 49.0423C101.801 50.3638 100.675 51.9299 99.5982 53.3003C99.4514 53.545 99.1577 53.545 98.962 53.3982C98.7173 53.2513 98.6683 52.9577 98.8151 52.7619C99.3535 51.881 99.745 51.2937 99.8429 51.0979C101.36 48.2593 101.898 45.8122 101.262 44.5397C101.066 44.0829 100.74 43.8055 100.283 43.7077C100.251 43.7077 100.202 43.7077 100.137 43.7077Z" fill="#570D0C"/>
<path d="M96.3681 57.0688L99.5004 52.6641L96.3681 57.0688Z" fill="#F6B2A0"/>
<path d="M96.3681 57.5584C96.2702 57.5584 96.1723 57.5258 96.0744 57.4605C95.8297 57.3137 95.7808 57.02 95.9766 56.7753L99.1088 52.3705C99.2557 52.1258 99.5493 52.0769 99.794 52.2237C99.9898 52.4195 100.039 52.7131 99.8919 52.9089L96.7596 57.3626C96.6618 57.5094 96.5149 57.5584 96.3681 57.5584Z" fill="#570D0C"/>
<path d="M104.395 62.0122C104.134 62.1753 103.905 62.3548 103.709 62.5505L99.6962 66.3191C98.7174 67.249 98.7174 68.913 99.892 69.6471C100.675 70.1855 101.752 70.0876 103.318 69.2066L107.135 66.1233C108.261 65.2423 108.751 63.6762 108.114 62.3548C107.625 61.278 106.597 60.5929 104.395 62.0122Z" fill="#F6B2A0"/>
<path fill-rule="evenodd" clip-rule="evenodd" d="M100.969 70.4789C100.479 70.4789 100.023 70.3484 99.5984 70.0874C98.9621 69.6469 98.5706 68.9617 98.5217 68.1787C98.4238 67.3466 98.7664 66.5146 99.3537 65.9273L103.367 62.2077C103.628 61.9467 103.873 61.7346 104.101 61.5715C105.308 60.8211 106.32 60.56 107.135 60.7884C107.755 60.9842 108.228 61.4247 108.555 62.1099C109.24 63.6271 108.799 65.4379 107.429 66.5146L103.612 69.598C102.6 70.1853 101.719 70.4789 100.969 70.4789ZM106.548 61.7183C106.059 61.7183 105.374 61.963 104.639 62.4035C104.444 62.534 104.248 62.6972 104.052 62.8929L100.039 66.6615C99.6473 67.0041 99.4516 67.5424 99.5005 68.0808C99.5005 68.5702 99.7452 69.0107 100.137 69.2554C100.822 69.6959 101.752 69.549 103.073 68.766L106.842 65.7805C107.821 64.9485 108.163 63.6271 107.674 62.5503C107.478 62.0935 107.217 61.8325 106.891 61.7673C106.793 61.7346 106.679 61.7183 106.548 61.7183Z" fill="#570D0C"/>
<path d="M101.458 58.5861C101.197 58.7493 100.969 58.9287 100.773 59.1245L96.7597 62.893C95.7809 63.8229 95.7809 65.487 96.9555 66.27C97.7386 66.7595 98.8153 66.7105 100.381 65.7806L104.199 62.7462C105.325 61.8163 105.814 60.2502 105.178 58.9287C104.688 57.852 103.661 57.1668 101.458 58.5861Z" fill="#F6B2A0"/>
<path fill-rule="evenodd" clip-rule="evenodd" d="M98.0322 67.0529C97.5428 67.0529 97.086 66.9224 96.6619 66.6614C96.0256 66.2699 95.6341 65.5847 95.5851 64.8016C95.4873 63.9207 95.8299 63.0886 96.4172 62.5503L100.43 58.7817C100.691 58.5533 100.936 58.3576 101.165 58.1944C102.372 57.4114 103.383 57.1503 104.199 57.4114C104.819 57.5745 105.292 58.015 105.618 58.7328C106.303 60.2011 105.863 62.0608 104.493 63.1376L100.675 66.172C99.6636 66.7593 98.7827 67.0529 98.0322 67.0529ZM101.703 59.0264C101.507 59.1243 101.311 59.2712 101.116 59.4669L97.1024 63.2355C96.7108 63.627 96.515 64.1654 96.564 64.7037C96.564 65.1931 96.8087 65.5847 97.2002 65.8294C97.8854 66.2699 98.8643 66.123 100.137 65.3889L103.905 62.3545C104.884 61.5714 105.227 60.201 104.737 59.1243C104.542 58.7002 104.281 58.4392 103.954 58.3413C103.416 58.1944 102.633 58.3902 101.703 59.0264Z" fill="#570D0C"/>
<path d="M93.4317 74.6391C93.4317 74.6391 95.5362 67.7382 88.1949 67.3467C86.9714 67.2978 97.1023 67.8851 97.4939 64.7039C97.8365 61.5226 92.4039 60.7885 86.8735 61.3758" fill="#F6B2A0"/>
<path d="M93.4317 75.1286C93.3664 75.1286 93.3175 75.1286 93.2849 75.1286C93.0402 75.0307 92.8933 74.786 92.9423 74.5413C92.9423 74.4923 93.7743 71.7027 92.4039 69.745C91.6208 68.6193 90.2015 67.9831 88.146 67.8362C87.5587 67.8362 87.6076 67.3468 87.6076 67.3468C87.6076 67.0532 87.9013 66.8574 88.146 66.8574C92.2571 67.0042 96.8087 66.319 97.0044 64.655C97.0697 64.0677 96.9066 63.5783 96.515 63.1867C95.2425 61.9143 91.5719 61.3759 86.9224 61.8653C86.6777 61.8653 86.433 61.6696 86.384 61.4248C86.384 61.1312 86.5798 60.8865 86.8245 60.8865C89.2227 60.6418 95.0468 60.2992 97.2002 62.5016C97.8202 63.1215 98.0812 63.8719 97.9833 64.7529C97.7386 66.8085 94.5084 67.5426 91.6208 67.7873C92.2734 68.1462 92.8117 68.6193 93.2359 69.2066C94.851 71.5069 93.9211 74.6881 93.8721 74.786C93.8232 75.0307 93.6275 75.1286 93.4317 75.1286Z" fill="#570D0C"/>
</g>
<defs>
<clipPath id="clip0_48_2160">
<path d="M0 60C0 26.8629 26.8629 0 60 0C93.1371 0 120 26.8629 120 60C120 93.1371 93.1371 120 60 120C26.8629 120 0 93.1371 0 60Z" fill="white"/>
</clipPath>
</defs>
</svg>
