<svg width="24" height="24" viewBox="0 0 24 24" fill="none" xmlns="http://www.w3.org/2000/svg">
<path d="M12.8889 2.7437C12.3103 3.56297 11.9968 4.54304 11.9558 5.65881C12.1431 5.63796 12.3298 5.61306 12.516 5.58406C12.7253 5.55061 12.8985 5.51346 13.025 5.47571C13.4078 5.34421 13.841 5.05331 14.3093 4.61391C14.8099 4.11525 15.1869 3.56271 15.4281 2.97564C15.6582 2.36931 15.7748 1.81808 15.7748 1.33736V1.12536C15.7654 1.08497 15.7563 1.04443 15.7475 1.00391C14.4316 1.33535 13.4704 1.92028 12.8889 2.7437Z" fill="black" fill-opacity="0.85"/>
<path d="M4.69836 6.5407C5.82468 5.43829 7.19784 5 8.1909 5C9.17146 5 9.98681 5.42845 10.572 5.73597L10.6397 5.77152C11.3 6.11753 11.7163 6.3145 12.1754 6.3145C12.6491 6.3145 13.1012 6.10844 13.8409 5.75497L13.855 5.74824C14.5239 5.42858 15.4207 5 16.5001 5C17.9932 5 19.2355 5.75643 20.2131 7.02812C20.5308 7.44134 20.4778 8.02927 20.0913 8.37902C19.0249 9.34425 18.5013 10.5275 18.5013 12C18.5013 14.0395 19.9384 14.94 20.6302 15.3518C21.0395 15.5954 21.2201 16.0938 21.062 16.5431C20.8126 17.2515 20.3545 18.1405 19.8928 18.9182C19.4383 19.6837 18.9145 20.4525 18.5021 20.8786L18.4809 20.9005C18.179 21.2125 17.8337 21.5693 17.4128 21.8246C16.9343 22.1149 16.4107 22.2498 15.7749 22.2498C15.4013 22.2498 15.0279 22.1689 14.7064 22.0804C14.4142 22 14.1077 21.8964 13.828 21.8018L13.7338 21.77C13.0663 21.545 12.5661 21.3951 12.1754 21.3951C11.8015 21.3951 11.385 21.5343 10.7787 21.7597L10.6886 21.7933C10.1725 21.9862 9.46737 22.2498 8.75515 22.2498C7.24591 22.2498 6.28023 21.0783 5.98123 20.7156C5.95979 20.6896 5.94178 20.6678 5.92724 20.6508L5.90051 20.6198C5.46949 20.1206 2.70435 16.9182 2.70435 12C2.70435 9.44114 3.54332 7.67121 4.69836 6.5407Z" fill="black" fill-opacity="0.85"/>
</svg>
