<svg width="24" height="24" viewBox="0 0 24 24" fill="none" xmlns="http://www.w3.org/2000/svg">
<path fill-rule="evenodd" clip-rule="evenodd" d="M4 1C3.44772 1 3 1.44772 3 2V19C3 19.3466 3.17945 19.6684 3.47427 19.8507C3.76909 20.0329 4.13723 20.0494 4.44721 19.8944L6 19.118V22C6 22.3441 6.17689 22.664 6.46829 22.8469C6.7597 23.0299 7.12469 23.0502 7.43457 22.9006L13.5 19.974L19.5654 22.9006C19.8753 23.0502 20.2403 23.0299 20.5317 22.8469C20.8231 22.664 21 22.3441 21 22V5C21 4.44772 20.5523 4 20 4H18V2C18 1.44772 17.5523 1 17 1H4ZM16 4V3H5V17.382L6 16.882V5C6 4.44772 6.44772 4 7 4H16ZM8 17.4783V6H19V20.4072L13.9346 17.963C13.66 17.8305 13.34 17.8305 13.0654 17.963L8 20.4072V17.5201C8.00029 17.5062 8.00029 17.4923 8 17.4783Z" fill="#007C52"/>
<path d="M8 20.4072V6H19V20.4072L13.9346 17.963C13.66 17.8305 13.34 17.8305 13.0654 17.963L8 20.4072Z" fill="#DEF6E7"/>
</svg>
