<svg width="20" height="20" viewBox="0 0 20 20" fill="none" xmlns="http://www.w3.org/2000/svg">
<g id="Content">
<g id="Content_2">
<path id="Vector" d="M12.8334 8.23334L9.00835 4.40834C8.85222 4.25313 8.64101 4.16602 8.42085 4.16602C8.2007 4.16602 7.98949 4.25313 7.83335 4.40834C7.75524 4.48581 7.69325 4.57798 7.65094 4.67953C7.60864 4.78108 7.58685 4.89 7.58685 5.00001C7.58685 5.11002 7.60864 5.21894 7.65094 5.32049C7.69325 5.42204 7.75524 5.51421 7.83335 5.59168L11.6667 9.40834C11.7448 9.48581 11.8068 9.57798 11.8491 9.67953C11.8914 9.78108 11.9132 9.89 11.9132 10C11.9132 10.11 11.8914 10.2189 11.8491 10.3205C11.8068 10.422 11.7448 10.5142 11.6667 10.5917L7.83335 14.4083C7.67643 14.5642 7.58784 14.7759 7.58705 14.9971C7.58627 15.2182 7.67337 15.4306 7.82919 15.5875C7.985 15.7444 8.19677 15.833 8.41791 15.8338C8.63904 15.8346 8.85143 15.7475 9.00835 15.5917L12.8334 11.7667C13.3015 11.2979 13.5645 10.6625 13.5645 10C13.5645 9.33751 13.3015 8.70209 12.8334 8.23334Z" fill="#6B6D6F"/>
</g>
</g>
</svg>
