<svg width="24" height="25" viewBox="0 0 24 25" fill="none" xmlns="http://www.w3.org/2000/svg">
<path fill-rule="evenodd" clip-rule="evenodd" d="M5 5.5V4C5 2.6193 6.11925 1.5 7.5 1.5H20.5C21.8807 1.5 23 2.6193 23 4V17C23 18.3807 21.8807 19.5 20.5 19.5H19V21C19 22.3807 17.8807 23.5 16.5 23.5H3.5C2.11929 23.5 1 22.3807 1 21V8C1 6.61929 2.11929 5.5 3.5 5.5H5ZM7 4C7 3.72385 7.22385 3.5 7.5 3.5H20.5C20.7762 3.5 21 3.72385 21 4V17C21 17.2762 20.7762 17.5 20.5 17.5H19V8C19 6.61929 17.8807 5.5 16.5 5.5H7V4Z" fill="black" fill-opacity="0.85"/>
</svg>
