<svg width="16" height="16" viewBox="0 0 16 16" fill="none" xmlns="http://www.w3.org/2000/svg">
<path d="M9.5622 6.77573C9.37837 7.66233 8.95665 8.30253 8.32846 8.72133C7.81214 9.06554 7.20954 9.22006 6.62052 9.28655C6.76854 9.45019 6.97528 9.60514 7.2441 9.72139C7.81784 9.96949 8.56526 9.97689 9.27488 9.4608C9.90447 9.00292 10.0605 8.2392 9.8744 7.49498C9.80529 7.21855 9.69325 6.97132 9.5622 6.77573Z" fill="black" fill-opacity="0.85"/>
<path fill-rule="evenodd" clip-rule="evenodd" d="M7.53031 0.861597C7.79071 0.601522 8.21259 0.601652 8.47283 0.861887L10.0344 2.42342H12.9102C13.2784 2.42342 13.5769 2.7219 13.5769 3.09009V5.96592L15.1384 7.52745C15.3986 7.78769 15.3988 8.20957 15.1387 8.46997L13.5769 10.0338V12.9098C13.5769 13.278 13.2784 13.5765 12.9102 13.5765H10.0344L8.47283 15.138C8.21259 15.3983 7.79071 15.3984 7.53031 15.1383L5.96656 13.5765H3.09045C2.72226 13.5765 2.42378 13.278 2.42378 12.9098V10.0338L0.861958 8.46997C0.601889 8.20957 0.602021 7.78769 0.862253 7.52746L2.42378 5.96592V3.09009C2.42378 2.7219 2.72226 2.42342 3.09045 2.42342H5.96656L7.53031 0.861597ZM9.00033 4.99996C8.63214 4.99996 8.33366 5.29844 8.33366 5.66663C8.33366 6.85174 7.97384 7.35527 7.58886 7.61193C7.14251 7.90949 6.48852 7.99996 5.66699 7.99996C5.2988 7.99996 5.00033 8.29844 5.00033 8.66663C5.00033 9.68836 5.79391 10.5469 6.71488 10.9452C7.68281 11.3638 8.93539 11.3564 10.0591 10.5391C11.2628 9.66367 11.4402 8.26072 11.1679 7.1716C11.0308 6.62312 10.7719 6.10618 10.4233 5.71357C10.0811 5.32812 9.59109 4.99996 9.00033 4.99996ZM9.5622 6.77573C9.37837 7.66233 8.95665 8.30253 8.32846 8.72133C7.81214 9.06554 7.20954 9.22006 6.62052 9.28655C6.76854 9.45019 6.97528 9.60514 7.2441 9.72139C7.81784 9.96949 8.56526 9.97689 9.27488 9.4608C9.90447 9.00292 10.0605 8.2392 9.8744 7.49498C9.80529 7.21855 9.69325 6.97132 9.5622 6.77573Z" fill="black" fill-opacity="0.85"/>
</svg>
