<svg width="24" height="24" viewBox="0 0 24 24" fill="none" xmlns="http://www.w3.org/2000/svg">
<path fill-rule="evenodd" clip-rule="evenodd" d="M8.76761 1.51932C8.94315 1.19908 9.2793 1 9.6445 1H14.3885C14.7568 1 15.0952 1.20239 15.2695 1.5268L16.598 4H22C22.5523 4 23 4.44772 23 5C23 5.55228 22.5523 6 22 6H20.5V22C20.5 22.5523 20.0523 23 19.5 23H4.5C3.94772 23 3.5 22.5523 3.5 22V6H2C1.44772 6 1 5.55228 1 5C1 4.44772 1.44772 4 2 4H7.40778L8.76761 1.51932ZM11 10C11 9.44771 10.5523 9 10 9C9.44772 9 9 9.44771 9 10V16.5C9 17.0523 9.44772 17.5 10 17.5C10.5523 17.5 11 17.0523 11 16.5V10ZM14 9C14.5523 9 15 9.44771 15 10V16.5C15 17.0523 14.5523 17.5 14 17.5C13.4477 17.5 13 17.0523 13 16.5V10C13 9.44771 13.4477 9 14 9Z" fill="black" fill-opacity="0.85"/>
</svg>
