<svg width="24" height="25" viewBox="0 0 24 25" fill="none" xmlns="http://www.w3.org/2000/svg">
<path fill-rule="evenodd" clip-rule="evenodd" d="M8.10003 2C7.61294 2 7.19671 2.35095 7.1144 2.83104L6.65687 5.5H3C2.44772 5.5 2 5.94772 2 6.5C2 7.05228 2.44772 7.5 3 7.5H4.56244L5.50208 22.0644C5.53603 22.5906 5.97271 23 6.5 23H17.5C18.0273 23 18.464 22.5906 18.4979 22.0644L19.4376 7.5H21C21.5523 7.5 22 7.05228 22 6.5C22 5.94772 21.5523 5.5 21 5.5H17.3432L16.8856 2.83104C16.8033 2.35095 16.3871 2 15.9 2H8.10003ZM15.314 5.5H8.68604L8.94319 4H15.0569L15.314 5.5ZM9.5 17C8.94772 17 8.5 17.4477 8.5 18C8.5 18.5523 8.94772 19 9.5 19H14.5C15.0523 19 15.5 18.5523 15.5 18C15.5 17.4477 15.0523 17 14.5 17H9.5Z" fill="black" fill-opacity="0.85"/>
</svg>
