<svg width="24" height="24" viewBox="0 0 24 24" fill="none" xmlns="http://www.w3.org/2000/svg">
<path fill-rule="evenodd" clip-rule="evenodd" d="M9.50001 2.5C9.79681 2.5 10.0783 2.63182 10.2682 2.85981L12.4684 5.5H19C20.1046 5.5 21 6.39545 21 7.5V9.5H22C22.2996 9.5 22.5834 9.6343 22.7734 9.866C22.9633 10.0977 23.0394 10.4024 22.9806 10.6961L20.9806 20.6961C20.8871 21.1635 20.4767 21.5 20 21.5H2.01211C1.9818 21.5003 1.95125 21.4993 1.92054 21.4968C1.88798 21.4942 1.8557 21.4901 1.8238 21.4844C1.62644 21.4492 1.45062 21.357 1.31262 21.2263C1.2901 21.205 1.26859 21.1826 1.24815 21.1593C1.09303 20.9824 1.00001 20.751 1.00001 20.5V4.5C1.00001 3.39543 1.89544 2.5 3.00001 2.5H9.50001ZM12 7.5C11.7032 7.5 11.4218 7.3682 11.2318 7.1402L9.03165 4.5H3.00001V12.3769L3.52986 10.2575C3.64116 9.8123 4.04114 9.5 4.50001 9.5H19V7.5H12Z" fill="black" fill-opacity="0.85"/>
</svg>
