<svg width="19" height="20" viewBox="0 0 19 20" fill="none" xmlns="http://www.w3.org/2000/svg">
<path fill-rule="evenodd" clip-rule="evenodd" d="M12.5268 0.833496C12.77 0.83345 13.0033 0.930086 13.1753 1.10212L16.5233 4.45167C16.8811 4.80962 16.8811 5.3898 16.5233 5.74775L7.04373 15.2315C6.87181 15.4035 6.63859 15.5002 6.3954 15.5002H3.04169C2.53543 15.5002 2.12502 15.0898 2.12502 14.5835V11.2468C2.12502 11.0039 2.22145 10.7709 2.39312 10.599L11.8784 1.10237C12.0503 0.930267 12.2835 0.833542 12.5268 0.833496ZM12.5272 3.04706L3.95835 11.6262V13.6668H6.01559L14.5789 5.09971L12.5272 3.04706ZM0.291687 18.2502C0.291687 17.7439 0.702093 17.3335 1.20835 17.3335H17.7084C18.2146 17.3335 18.625 17.7439 18.625 18.2502C18.625 18.7564 18.2146 19.1668 17.7084 19.1668H1.20835C0.702093 19.1668 0.291687 18.7564 0.291687 18.2502Z" fill="#F9FAFB"/>
</svg>
