<svg width="14" height="13" viewBox="0 0 14 13" fill="none" xmlns="http://www.w3.org/2000/svg">
<g id="Group">
<g id="Group_2">
<path id="Vector (Stroke)" fill-rule="evenodd" clip-rule="evenodd" d="M0.394082 0.721311C0.502907 0.484863 0.739394 0.333374 0.999684 0.333374H12.9997C13.26 0.333374 13.4965 0.484863 13.6053 0.721311C13.7141 0.95776 13.6754 1.23592 13.5061 1.43364L8.86635 6.85238V12C8.86635 12.2305 8.74732 12.4446 8.55157 12.5663C8.35583 12.6879 8.11114 12.6998 7.9045 12.5978L5.5045 11.4126C5.27702 11.3003 5.13302 11.0686 5.13302 10.8149V6.85238L0.493286 1.43364C0.323995 1.23592 0.285256 0.95776 0.394082 0.721311ZM2.44817 1.66671L6.30608 6.17237C6.40951 6.29316 6.46635 6.44695 6.46635 6.60597V10.4005L7.53302 10.9273V6.60597C7.53302 6.44695 7.58986 6.29316 7.69329 6.17237L11.5512 1.66671H2.44817Z" fill="black"/>
</g>
</g>
</svg>
