<svg width="46" height="46" viewBox="0 0 46 46" fill="none" xmlns="http://www.w3.org/2000/svg">
<path d="M0 4C0 1.79086 1.79086 0 4 0H42C44.2091 0 46 1.79086 46 4V42C46 44.2091 44.2091 46 42 46H4C1.79086 46 0 44.2091 0 42V4Z" fill="#F7F7F7"/>
<path d="M15.667 33.0833C15.1969 33.0833 14.8094 32.7294 14.7565 32.2735L14.7503 32.1666L14.7506 22.6894C14.5634 22.6232 14.3797 22.5431 14.2013 22.4489L14.003 22.3373L13.362 21.9527C13.0859 21.787 12.917 21.4886 12.917 21.1666V17.5C12.917 16.9937 13.3274 16.5833 13.8337 16.5833L14.7503 16.5824V13.8333C14.7503 13.3632 15.1042 12.9757 15.5601 12.9228L15.667 12.9166H30.3337C30.8038 12.9166 31.1912 13.2705 31.2442 13.7264L31.2503 13.8333V16.5824L32.167 16.5833C32.6371 16.5833 33.0245 16.9372 33.0775 17.3931L33.0837 17.5V21.1666C33.0837 21.4886 32.9147 21.787 32.6386 21.9527L31.9976 22.3372C31.7583 22.4808 31.5081 22.5981 31.251 22.6891L31.2503 32.1666C31.2503 32.6367 30.8965 33.0242 30.4406 33.0771L30.3337 33.0833H15.667ZM27.5837 22.2355L27.4143 22.3372C26.1733 23.0819 24.6384 23.1191 23.368 22.4489L23.1697 22.3372L23.0003 22.2355L22.831 22.3372C21.59 23.0819 20.0551 23.1191 18.7847 22.4489L18.5864 22.3372L18.417 22.2355L18.2476 22.3372C17.7306 22.6475 17.1625 22.8349 16.5839 22.8996L16.5837 31.25H19.792V26.6666C19.792 26.1965 20.1459 25.8091 20.6018 25.7561L20.7087 25.75H25.292C25.7983 25.75 26.2087 26.1604 26.2087 26.6666V31.25H29.417L29.4177 22.8997C28.8387 22.8351 28.2703 22.6476 27.753 22.3372L27.5837 22.2355ZM24.3753 27.5833H21.6253V31.25H24.3753V27.5833ZM30.3181 18.4157L14.7503 18.4166V20.6478L14.9463 20.7652C15.6236 21.1716 16.4586 21.1987 17.1569 20.8465L17.3044 20.7652L17.9454 20.3806C18.2357 20.2064 18.5983 20.2064 18.8886 20.3806L19.5296 20.7652C20.2553 21.2006 21.162 21.2006 21.8877 20.7652L22.5287 20.3806C22.819 20.2064 23.1817 20.2064 23.4719 20.3806L24.1129 20.7652C24.8387 21.2006 25.7453 21.2006 26.4711 20.7652L27.112 20.3806C27.4023 20.2064 27.765 20.2064 28.0553 20.3806L28.6963 20.7652C29.422 21.2006 30.3287 21.2006 31.0544 20.7652L31.2503 20.6469V18.4166L30.3495 18.4165C30.3442 18.4166 30.339 18.4166 30.3337 18.4166L30.3181 18.4157ZM29.417 14.75H16.5837V16.5824H29.417V14.75Z" fill="#2D2E2F"/>
<path d="M30.3178 18.4158L14.75 18.4167V20.6479L14.946 20.7652C15.6233 21.1717 16.4582 21.1988 17.1566 20.8465L17.3041 20.7652L17.945 20.3807C18.2353 20.2065 18.598 20.2065 18.8883 20.3807L19.5293 20.7652C20.255 21.2007 21.1617 21.2007 21.8874 20.7652L22.5284 20.3807C22.8187 20.2065 23.1813 20.2065 23.4716 20.3807L24.1126 20.7652C24.8383 21.2007 25.745 21.2007 26.4707 20.7652L27.1117 20.3807C27.402 20.2065 27.7647 20.2065 28.055 20.3807L28.6959 20.7652C29.4217 21.2007 30.3283 21.2007 31.0541 20.7652L31.25 20.6469V18.4167L30.3492 18.4166L30.3333 18.4167L30.3178 18.4158Z" fill="white"/>
<path d="M24.375 27.5834H21.625V31.25H24.375V27.5834Z" fill="white"/>
</svg>
