<svg width="32" height="32" viewBox="0 0 32 32" fill="none" xmlns="http://www.w3.org/2000/svg">
    <path
        d="M0 16C0 7.16344 7.16344 0 16 0C24.8366 0 32 7.16344 32 16C32 24.8366 24.8366 32 16 32C7.16344 32 0 24.8366 0 16Z"
        fill="#FFC107" />
    <path fill-rule="evenodd" clip-rule="evenodd"
        d="M8.66667 15C8.66667 11.5022 11.5022 8.66663 15 8.66663C18.4978 8.66663 21.3333 11.5022 21.3333 15C21.3333 16.5087 20.8058 17.8943 19.925 18.9822L22.3738 21.4309C22.6341 21.6913 22.6341 22.1134 22.3738 22.3737C22.1134 22.6341 21.6913 22.6341 21.431 22.3737L18.9822 19.925C17.8943 20.8057 16.5088 21.3333 15 21.3333C11.5022 21.3333 8.66667 18.4977 8.66667 15ZM15 9.99996C12.2386 9.99996 10 12.2385 10 15C10 17.7614 12.2386 20 15 20C17.7614 20 20 17.7614 20 15C20 12.2385 17.7614 9.99996 15 9.99996ZM12.643 12.3096C13.2455 11.7071 14.0797 11.3333 15 11.3333C15.9203 11.3333 16.7545 11.7071 17.357 12.3096C17.6174 12.5699 17.6174 12.992 17.357 13.2524C17.0967 13.5127 16.6745 13.5127 16.4142 13.2524C16.0515 12.8897 15.5525 12.6666 15 12.6666C14.4475 12.6666 13.9484 12.8897 13.5858 13.2524C13.3254 13.5128 12.9033 13.5127 12.6429 13.2524C12.3826 12.992 12.3826 12.5699 12.643 12.3096Z"
        fill="white" />
</svg>
