<?xml version="1.0" encoding="UTF-8"?>
<svg version="1.1" xmlns="http://www.w3.org/2000/svg" width="1200" height="1200">
<path d="M0 0 C0.78580444 0.09710266 1.57160889 0.19420532 2.38122559 0.29425049 C77.91156842 9.75383224 151.88824098 32.94932489 218 71 C218.80453613 71.46019531 219.60907227 71.92039062 220.43798828 72.39453125 C257.98850969 94.00415249 292.75631228 120.12962578 324.48046875 149.59375 C326.06394181 151.05917494 327.6559733 152.5148159 329.25 153.96875 C338.2465989 162.18920816 347.14836902 170.49997591 355.06640625 179.78515625 C357.09867043 182.11302249 359.19327504 184.37098692 361.30273438 186.62866211 C366.26687808 191.94507501 371.05205432 197.33821457 375.60546875 203.015625 C377.38240685 205.23027542 379.17495802 207.42492381 380.98828125 209.609375 C405.51577956 239.25329008 426.10370087 271.99136826 444 306 C444.52207031 306.99209473 445.04414062 307.98418945 445.58203125 309.00634766 C480.8452742 376.56205548 500.73126818 451.18955805 507 527 C507.09571289 528.12374023 507.19142578 529.24748047 507.29003906 530.40527344 C509.92371406 565.90796752 509.475173 602.66034796 505 638 C504.90289734 638.77635803 504.80579468 639.55271606 504.70574951 640.3526001 C493.66957251 727.79947634 464.04678533 812.27795713 391 920 C390.27224365 920.95519531 390.27224365 920.95519531 389.52978516 921.9296875 C380.17077215 934.16318536 370.15171849 945.80574786 359.66796875 957.0859375 C357.72504954 959.20807181 355.84976189 961.34784477 353.984375 963.53515625 C349.17927708 969.04606199 343.97998428 974.16937964 338.80297852 979.32739258 C337.066064 981.058947 335.33456111 982.79578359 333.60351562 984.53320312 C327.90402083 990.23647797 322.15967882 995.78979983 316 1001 C314.80798568 1002.0446995 313.61787374 1003.09157369 312.4296875 1004.140625 C304.69760888 1010.9182987 296.82212634 1017.43890072 288.67333984 1023.70898438 C287.05291323 1024.95917637 285.44146193 1026.22007278 283.83203125 1027.484375 C254.67264856 1050.23231578 223.03405621 1069.43627483 190 1086 C189.00919434 1086.49741699 188.01838867 1086.99483398 186.99755859 1087.50732422 C108.836589 1126.48139091 21.99762086 1145.65745796 -250.47021484 1116.2109375 C-270.06863518 1109.4874512 -289.18543845 1101.66499454 -308 1093 C-309.55412598 1092.28674561 -309.55412598 1092.28674561 -311.13964844 1091.55908203 C-325.62840506 1084.8690406 -339.61208615 1077.53139965 -353.37719727 1069.45703125 C-354.24272217 1068.97621094 -355.10824707 1068.49539063 -356 1068 C-356.50347961 1067.60370392 -357.00695923 1067.20740784 -357.5256958 1066.79910278 C-360.94091692 1064.47027739 -363.19272562 1063.90457532 -367.34333801 1064.39520264 C-371.60896502 1065.40549916 -375.78178079 1066.60042877 -379.9765625 1067.8671875 C-381.58793105 1068.33052052 -383.20006029 1068.79121499 -384.81288147 1069.24946594 C-388.27526324 1070.23916015 -391.73170993 1071.24678647 -395.18466187 1072.26889038 C-400.69295779 1073.89932312 -406.21218291 1075.49025156 -411.73364258 1077.07543945 C-418.42933418 1079.00064696 -425.12209388 1080.93548111 -431.81123066 1082.8833437 C-443.2868778 1086.22480357 -454.77864061 1089.50481169 -466.28515625 1092.73828125 C-467.09506956 1092.96592918 -467.90498287 1093.19357712 -468.73943901 1093.42812347 C-471.98189669 1094.33927345 -475.22447437 1095.249994 -478.46726513 1096.15995789 C-486.49513795 1098.41279294 -494.51938742 1100.67840253 -502.54340935 1102.94490814 C-515.36783433 1106.56703147 -528.19412759 1110.18249907 -541.02188683 1113.79279518 C-543.42955097 1114.47041904 -545.83719191 1115.14812532 -548.24482727 1115.82585144 C-555.02259455 1117.73366864 -561.80042312 1119.64126548 -568.57869053 1121.54730511 C-571.31343279 1122.31646621 -574.04801261 1123.08620365 -576.78255653 1123.85606956 C-578.11386816 1124.23075061 -579.44524622 1124.60519565 -580.77669334 1124.97939491 C-588.75425221 1127.22169977 -596.72261716 1129.49323445 -604.68212891 1131.79882812 C-607.10192088 1132.49774778 -609.52179592 1133.19637929 -611.94167519 1133.89499664 C-614.25363727 1134.56447348 -616.56385096 1135.23975686 -618.87406921 1135.91522217 C-620.28486314 1136.32298833 -621.69573262 1136.73049319 -623.10668945 1137.13769531 C-624.34320755 1137.49776672 -625.57972565 1137.85783813 -626.85371399 1138.2288208 C-630 1139 -630 1139 -634 1139 C-633.42210731 1134.47930742 -632.61172557 1130.19741379 -631.36791992 1125.81445312 C-631.03132858 1124.61981445 -630.69473724 1123.42517578 -630.34794617 1122.19433594 C-629.97552653 1120.88995316 -629.6030316 1119.58559188 -629.23046875 1118.28125 C-628.83832553 1116.89562218 -628.44659755 1115.50987678 -628.05525208 1114.12402344 C-627.21351993 1111.14646904 -626.36898044 1108.16973091 -625.5222168 1105.19360352 C-624.16593797 1100.42655586 -622.81588986 1095.65775737 -621.46679688 1090.88867188 C-619.8198296 1085.06804054 -618.17145031 1079.24781291 -616.52121162 1073.42810822 C-613.64609712 1063.28820606 -610.78195269 1053.14525331 -607.92578125 1043 C-607.72161905 1042.2748287 -607.51745686 1041.5496574 -607.30710793 1040.80251122 C-606.2809664 1037.15748393 -605.25503846 1033.51239657 -604.22921753 1029.86727905 C-602.36977586 1023.26033559 -600.50861197 1016.65387721 -598.64751625 1010.04739952 C-598.02394683 1007.83383927 -597.40041977 1005.62026709 -596.77690125 1003.4066925 C-594.65294032 995.86650912 -592.52847243 988.32646884 -590.40332031 980.78662109 C-590.07996311 979.63928954 -590.07996311 979.63928954 -589.75007343 978.46877956 C-588.66244677 974.60979683 -587.57451326 970.75090105 -586.48600769 966.89216614 C-584.36101839 959.35763931 -582.24129667 951.82170242 -580.13305664 944.2824707 C-579.32238278 941.38606061 -578.51104997 938.4898359 -577.69921875 935.59375 C-577.5016781 934.88882605 -577.30413746 934.18390209 -577.10061073 933.45761681 C-574.66097601 924.76276395 -572.15488507 916.09187795 -569.55633545 907.44316101 C-568.15495187 902.77498822 -566.77778254 898.0998354 -565.40228271 893.42398071 C-564.76820512 891.29689045 -564.12114668 889.17361872 -563.46002197 887.05477905 C-559.08419387 875.10929101 -559.08419387 875.10929101 -560.90625 863.125 C-561.89124852 861.71649743 -562.91984428 860.33692378 -564 859 C-564.70083379 857.79007146 -565.38091815 856.56777701 -566.03515625 855.33203125 C-566.70999827 854.15831364 -567.38581427 852.98515562 -568.0625 851.8125 C-600.33513751 794.88304458 -622.07128421 732.48560757 -633 668 C-633.19287598 666.87158691 -633.38575195 665.74317383 -633.58447266 664.58056641 C-638.04062108 637.9874226 -640.45397857 610.95525804 -641 584 C-641.02191406 583.02740234 -641.04382813 582.05480469 -641.06640625 581.05273438 C-642.81029334 491.59132684 -623.23116763 401.58373067 -578 309 C-577.52208008 308.04158203 -577.04416016 307.08316406 -576.55175781 306.09570312 C-561.62795619 276.33405409 -543.39376018 248.29416126 -523 222 C-522.54463867 221.40719238 -522.08927734 220.81438477 -521.62011719 220.20361328 C-512.6623422 208.54453903 -503.16108172 197.3734268 -493.26489258 186.50024414 C-491.85142938 184.93990387 -490.4456624 183.37251485 -489.05175781 181.79467773 C-483.28252074 175.28180399 -477.24091594 169.08660212 -471.0793457 162.94897461 C-469.43258596 161.30760204 -467.79127905 159.66091181 -466.15039062 158.01367188 C-460.60513807 152.46492094 -454.9772555 147.08568449 -449 142 C-447.39231627 140.54554483 -445.78760285 139.08779105 -444.1875 137.625 C-374.95370338 75.30410894 -286.63573151 31.48060664 -134.11706543 0.25 C-132.72751707 0.08591103 -131.33826073 -0.08067397 -129.94934082 -0.25 C-87.23885824 -5.44671271 -42.69615166 -5.30015588 0 0 Z M-116 61 C-117.78180664 61.1853833 -117.78180664 61.1853833 -119.59960938 61.37451172 C-210.72884716 71.22019286 -298.01954895 104.82535904 -381 167 C-381.63921387 167.50917969 -382.27842773 168.01835937 -382.93701172 168.54296875 C-390.41196437 174.51300445 -397.78616844 180.54741885 -404.8359375 187.01953125 C-406.89991208 188.90840329 -409.00290254 190.7394626 -411.125 192.5625 C-414.58323932 195.5693627 -417.7930013 198.77182589 -421.00390625 202.0390625 C-422.91511619 203.91661121 -424.89034635 205.64809414 -426.9375 207.375 C-430.93497295 210.80812383 -434.36128493 214.63601308 -437.83984375 218.5859375 C-439.70974699 220.67563046 -441.62304821 222.66335597 -443.625 224.625 C-447.29519805 228.24492136 -450.65076717 232.08377106 -454 236 C-454.77859375 236.88945312 -455.5571875 237.77890625 -456.359375 238.6953125 C-464.09602289 247.6022712 -471.15174543 256.99091643 -478.14648438 266.48632812 C-479.88643653 268.84598926 -481.63781991 271.19675677 -483.390625 273.546875 C-491.59705428 284.63385316 -498.94311365 296.15286493 -506 308 C-506.49322754 308.82274414 -506.98645508 309.64548828 -507.49462891 310.49316406 C-522.26821881 335.26544069 -534.52362428 361.15127907 -545 388 C-545.56557617 389.43617676 -545.56557617 389.43617676 -546.14257812 390.90136719 C-566.27438148 442.45435534 -577.98471828 499.78608052 -578.203125 555.11328125 C-578.21013931 556.3140329 -578.21715363 557.51478455 -578.22438049 558.75192261 C-578.24177811 562.60548709 -578.24823297 566.45889768 -578.25 570.3125 C-578.25067474 571.63190582 -578.25134949 572.95131165 -578.25204468 574.31069946 C-578.244584 594.39649123 -577.71070325 614.08059991 -575 634 C-574.83371094 635.27520508 -574.66742187 636.55041016 -574.49609375 637.86425781 C-567.70877048 688.78175143 -553.60737345 738.36851338 -532 785 C-531.52304687 786.03753418 -531.04609375 787.07506836 -530.5546875 788.14404297 C-520.92559055 809.00172255 -509.89153326 828.85008899 -497.4609375 848.1640625 C-496.82043457 849.17774902 -496.82043457 849.17774902 -496.16699219 850.21191406 C-495.21247086 851.67444842 -494.16830546 853.07812256 -493.1015625 854.4609375 C-489.78435469 862.10698387 -494.79798788 873.02194569 -496.98828125 880.5703125 C-497.4036093 882.02205204 -497.81825369 883.47398731 -498.23226929 884.92610168 C-499.12010081 888.03516743 -500.01230618 891.14293019 -500.90805054 894.24972534 C-502.33040432 899.18339844 -503.74297335 904.11983749 -505.15356445 909.05688477 C-505.63674927 910.74770028 -506.11994944 912.43851141 -506.60316467 914.12931824 C-506.84443651 914.97357046 -507.08570835 915.81782269 -507.33429146 916.68765831 C-508.07514585 919.27862227 -508.81697531 921.86930527 -509.55906677 924.45991516 C-512.8976495 936.11791664 -516.20764971 947.78369058 -519.4921875 959.45703125 C-519.7127072 960.24072838 -519.93322689 961.02442551 -520.160429 961.83187103 C-521.67063023 967.20008326 -523.17923734 972.56874284 -524.6875 977.9375 C-526.06267763 982.83205457 -527.43838146 987.7264604 -528.81525993 992.6205368 C-529.19348041 993.96528988 -529.5714908 995.31010206 -529.94928169 996.65497589 C-532.20654863 1004.68961054 -534.48949411 1012.71629428 -536.80322266 1020.73486328 C-537.27150189 1022.36095756 -537.73974866 1023.98706119 -538.20796204 1025.61317444 C-539.10697928 1028.73495908 -540.01123812 1031.85516224 -540.91838074 1034.97459412 C-541.32574039 1036.3873865 -541.73292061 1037.80023065 -542.13989258 1039.21313477 C-542.49956619 1040.45329849 -542.85923981 1041.69346222 -543.22981262 1042.97120667 C-544.12322271 1045.96371427 -544.12322271 1045.96371427 -544 1049 C-536.14085659 1047.59165996 -528.53238082 1045.55697491 -520.86328125 1043.3515625 C-519.57033062 1042.98293985 -518.27727214 1042.61469532 -516.9841156 1042.24679565 C-514.21164531 1041.45730921 -511.43985276 1040.66550273 -508.6685791 1039.87182617 C-504.24081516 1038.60386354 -499.8115052 1037.34136625 -495.38183594 1036.08007812 C-494.25079783 1035.7580158 -494.25079783 1035.7580158 -493.09691048 1035.42944717 C-491.55461883 1034.99029283 -490.01232206 1034.55115647 -488.47002029 1034.11203766 C-486.1097438 1033.43985523 -483.74960734 1032.76718293 -481.38949585 1032.09442139 C-470.31540432 1028.93851899 -459.23593603 1025.80205274 -448.15234375 1022.6796875 C-447.3837887 1022.46315332 -446.61523365 1022.24661915 -445.82338905 1022.02352333 C-438.2053836 1019.8775387 -430.58658752 1017.73438254 -422.96662617 1015.59535313 C-419.31615034 1014.57058483 -415.66584801 1013.54519967 -412.015625 1012.51953125 C-410.96462899 1012.22428338 -410.96462899 1012.22428338 -409.89240074 1011.92307091 C-400.95259941 1009.41046145 -392.02487103 1006.85945973 -383.109375 1004.26171875 C-380.39506404 1003.47582259 -377.68052806 1002.69070834 -374.96594238 1001.90576172 C-372.59623914 1001.21553183 -370.23126022 1000.51066474 -367.86621094 999.8046875 C-366.48393789 999.4042088 -365.10146608 999.00441513 -363.71875 998.60546875 C-362.00075195 998.09729614 -362.00075195 998.09729614 -360.24804688 997.57885742 C-354.91457775 996.62834214 -350.40774661 997.26573635 -345.8984375 1000.30078125 C-345.17253418 1000.77700928 -344.44663086 1001.2532373 -343.69873047 1001.74389648 C-342.93189941 1002.26153564 -342.16506836 1002.7791748 -341.375 1003.3125 C-339.67942089 1004.4176572 -337.98141773 1005.51910251 -336.28125 1006.6171875 C-335.40855469 1007.18147461 -334.53585937 1007.74576172 -333.63671875 1008.32714844 C-269.81672347 1048.81738989 -195.04479306 1073.30236461 -120 1081 C-119.17561432 1081.08613556 -118.35122864 1081.17227112 -117.50186157 1081.26101685 C-100.68011894 1082.97162249 -83.96292168 1083.36207211 -67.0625 1083.3125 C-65.76773743 1083.31067719 -64.47297485 1083.30885437 -63.13897705 1083.30697632 C-43.24188544 1083.25991109 -23.73405117 1082.65870169 -4 1080 C-2.65241547 1079.82610348 -1.30475699 1079.65277919 0.04296875 1079.47998047 C58.9193809 1071.83994258 115.00593763 1053.55950576 168 1027 C168.98258789 1026.50999512 169.96517578 1026.01999023 170.97753906 1025.51513672 C184.46209254 1018.75391435 197.31484589 1011.15672634 210 1003 C210.61198242 1002.60683594 211.22396484 1002.21367188 211.85449219 1001.80859375 C230.83600913 989.53908608 248.93996331 975.81403746 266 961 C266.73476563 960.36578125 267.46953125 959.7315625 268.2265625 959.078125 C270.16189458 957.39723897 272.08369342 955.70253533 274 954 C274.81210937 953.28070312 275.62421875 952.56140625 276.4609375 951.8203125 C280.86995007 947.88794994 285.15593477 943.89622858 289.2890625 939.67578125 C291.12390068 937.87864522 293.04201275 936.22416351 295 934.5625 C298.39066475 931.6404108 301.27219551 928.50169759 304.16015625 925.08984375 C306.13761436 922.84368644 308.22961266 920.77339653 310.375 918.6875 C314.52966054 914.58926948 318.18819096 910.21729494 321.83203125 905.6640625 C323.7376723 903.32235584 325.70580013 901.09490677 327.75 898.875 C398.08568023 820.46116244 436.91068445 712.59287414 445.6875 542.88671875 C440.91854165 457.20615537 414.41999758 371.01000548 340 259 C339.27683594 258.07703125 338.55367187 257.1540625 337.80859375 256.203125 C335.89094393 253.78636084 333.94949239 251.39111209 332 249 C331.30648437 248.13246094 330.61296875 247.26492188 329.8984375 246.37109375 C325.00690366 240.29556674 319.8797839 234.51089556 314.578125 228.796875 C312.38492168 226.4175817 310.24123898 224.00997639 308.125 221.5625 C305.52249594 218.57305289 302.92726174 215.67635359 300 213 C299.34 213 298.68 213 298 213 C297.34 211.68 296.68 210.36 296 209 C295.34 209 294.68 209 294 209 C293.34 207.68 292.68 206.36 292 205 C291.34 205 290.68 205 290 205 C289.73445312 204.40832031 289.46890625 203.81664062 289.1953125 203.20703125 C285.65928676 196.67809483 278.56639218 191.77248212 273 187 C271.9566862 186.09284461 270.91374621 185.18525919 269.87109375 184.27734375 C261.77842674 177.25362834 253.52399054 170.49345117 245 164 C244.30841797 163.47180664 243.61683594 162.94361328 242.90429688 162.39941406 C224.1880851 148.17542526 204.54463109 135.41711598 184 124 C183.04851074 123.46552246 182.09702148 122.93104492 181.11669922 122.38037109 C91.87301887 72.40789991 -14.15614924 50.25704012 -116 61 Z " fill="#36BB22" transform="translate(668,27)"/>
<path d="M0 0 C8.92761242 6.16452522 16.57544551 13.92561474 24.23120117 21.57006836 C25.06022446 22.39412674 25.88924774 23.21818512 26.74339294 24.06721497 C29.45015627 26.75952425 32.15314724 29.45557659 34.85546875 32.15234375 C36.27214376 33.56471593 37.68881907 34.97708783 39.10552675 36.38942724 C43.04417168 40.31632482 46.98072915 44.24530289 50.91523856 48.17634386 C55.97271594 53.22933512 61.03668256 58.27570233 66.10635394 63.31645864 C70.05083334 67.23923232 73.98944223 71.16783877 77.92374974 75.10081393 C80.26264452 77.43866837 82.6045554 79.7733511 84.95119286 82.10343742 C87.56863913 84.70372387 90.17634072 87.31342889 92.78198242 89.92553711 C93.54526855 90.67960846 94.30855469 91.43367981 95.0949707 92.21060181 C105.40944806 102.60499547 112.25201749 113.3241128 112.8125 128.3125 C112.19833153 145.2635499 103.75262618 155.88210694 92.0234375 167.18359375 C91.03157636 168.1545549 90.04084428 169.1266706 89.05117798 170.09986877 C84.88681818 174.19166287 80.70546368 178.26575912 76.51074219 182.32641602 C73.92967052 184.82654592 71.36390127 187.341589 68.80656815 189.86598396 C67.373214 191.2720275 65.92316628 192.66098929 64.4727478 194.04942322 C58.63849916 199.8165667 53.61329864 205.67849774 53.19424438 214.22401428 C53.48181948 220.14170767 55.95218842 225.21536857 58.5625 230.4375 C59.00142578 231.33557373 59.44035156 232.23364746 59.89257812 233.15893555 C84.94589756 283.63579905 120.11198189 332.40708214 164.546875 367.6171875 C166.47998068 369.15165839 168.38434894 370.72272092 170.265625 372.3203125 C189.40713034 388.43690217 211.3395062 401.94610815 233.3125 413.8125 C234.14346191 414.26834473 234.97442383 414.72418945 235.83056641 415.19384766 C252.99948921 425.69179113 252.99948921 425.69179113 272.1171875 428.59765625 C280.3231726 425.66277546 285.53455718 419.92482354 291.48828125 413.7890625 C292.46226259 412.79928782 293.4372318 411.81048437 294.41313171 410.82260132 C298.52840279 406.65271111 302.6234852 402.46315468 306.71655273 398.27148438 C309.23175024 395.69711128 311.7570526 393.13297887 314.28810692 390.57419968 C315.69952207 389.14092205 317.09900878 387.69592853 318.49812317 386.25064087 C328.53225008 376.1023452 338.89606338 369.8137112 353.4375 369.5 C365.54534582 369.87446946 375.02194965 373.41705446 383.91455078 381.79443359 C384.46776567 382.31075537 385.02098057 382.82707714 385.59095955 383.35904503 C394.21129284 391.46768092 402.55338942 399.86784741 410.9296875 408.2265625 C412.3053507 409.59798464 412.3053507 409.59798464 413.70880508 410.99711227 C418.05555966 415.33050557 422.40059752 419.66560268 426.74262607 424.00373137 C431.71404696 428.97065822 436.69197639 433.93093992 441.67555892 438.88566363 C446.02995675 443.21573575 450.3759749 447.55413154 454.71908951 451.89551926 C456.55290014 453.7263179 458.38919404 455.5546329 460.22808456 457.38032913 C462.79970255 459.93478742 465.36157343 462.49866093 467.92138672 465.06494141 C468.67060898 465.80494888 469.41983124 466.54495636 470.1917572 467.30738831 C482.75503354 479.96976234 490.18284704 494.24274902 490.34375 512.32421875 C489.51689071 531.11459612 480.98679327 543.75586848 468.3125 556.8125 C467.47203125 557.69292969 466.6315625 558.57335937 465.765625 559.48046875 C438.80562895 587.17027361 402.42812214 605.19767702 363.55810547 606.21069336 C315.58301984 606.74067749 267.59726727 591.61445076 224.3125 571.8125 C223.2709375 571.33844727 222.229375 570.86439453 221.15625 570.37597656 C205.74353068 563.30709151 190.93365834 555.38915712 176.3125 546.8125 C175.45317871 546.31250488 174.59385742 545.81250977 173.70849609 545.29736328 C133.89262941 522.08738372 96.23365021 494.03998592 62.51123047 462.61254883 C59.0271235 459.39206909 55.41259644 456.480233 51.54296875 453.73828125 C48.82090676 451.3880596 46.60365501 448.74688781 44.26391602 446.02172852 C40.90791183 442.22234382 37.29133928 438.68745243 33.6875 435.125 C32.95015625 434.39216797 32.2128125 433.65933594 31.453125 432.90429688 C28.51779111 429.98737458 25.57784997 427.07513837 22.63671875 424.1640625 C13.91821102 415.34298409 5.77628019 405.99569202 -2.23046875 396.53125 C-3.64772509 394.85941946 -5.07266327 393.19447712 -6.5 391.53125 C-37.74899332 355.02986042 -65.80874966 314.35019595 -86.63476562 270.98730469 C-87.82610376 268.52616365 -89.04600813 266.08005831 -90.265625 263.6328125 C-116.92324486 209.66807569 -139.50839015 140.49482789 -119.41748047 80.90527344 C-110.24541108 54.6099628 -94.93445256 34.5913109 -75.6875 14.8125 C-75.08953613 14.19697266 -74.49157227 13.58144531 -73.87548828 12.94726562 C-54.16258951 -7.08297585 -25.33096826 -15.14925779 0 0 Z " fill="#36BB22" transform="translate(437.6875,312.1875)"/>
</svg>
