<svg width="24" height="24" viewBox="0 0 24 24" fill="none" xmlns="http://www.w3.org/2000/svg">
<g id="icon_setting-two">
<path id="Vector (Stroke)" fill-rule="evenodd" clip-rule="evenodd" d="M9.05927 1.39769C9.51711 1.27095 10.0009 1.48383 10.2168 1.907C10.5488 2.55781 11.2237 2.99994 12 2.99994C12.7763 2.99994 13.4512 2.55781 13.7832 1.907C13.9991 1.48383 14.4829 1.27095 14.9407 1.39769C16.6647 1.87491 18.2174 2.76058 19.4886 3.9426C19.8122 4.24343 19.9 4.72091 19.7046 5.11715C19.5739 5.38222 19.5 5.68103 19.5 5.99994C19.5 7.1045 20.3954 7.99994 21.5 7.99994L21.5278 7.99974C21.9699 7.99342 22.3637 8.27816 22.4961 8.69997C22.8237 9.74295 23 10.8518 23 11.9999C23 12.7577 22.9232 13.4986 22.7767 14.2148C22.6741 14.7166 22.2089 15.0597 21.6992 15.0096C21.6341 15.0032 21.5676 14.9999 21.5 14.9999C20.3954 14.9999 19.5 15.8954 19.5 16.9999C19.5 17.4919 19.6763 17.94 19.9704 18.2885C20.3006 18.68 20.2818 19.2577 19.9266 19.6268C18.6286 20.9756 16.9882 21.9947 15.1434 22.544C14.6216 22.6993 14.0714 22.4086 13.9056 21.89C13.6475 21.0826 12.8905 20.4999 12 20.4999C11.1095 20.4999 10.3525 21.0826 10.0944 21.89C9.92863 22.4086 9.3784 22.6993 8.85655 22.544C7.01182 21.9947 5.37142 20.9756 4.0734 19.6268C3.71823 19.2577 3.69934 18.68 4.02964 18.2885C4.32369 17.94 4.5 17.4919 4.5 16.9999C4.5 15.8954 3.60457 14.9999 2.5 14.9999C2.43238 14.9999 2.36594 15.0032 2.30078 15.0096C1.79108 15.0597 1.32592 14.7166 1.22328 14.2148C1.07677 13.4986 1 12.7577 1 11.9999C1 10.8518 1.17624 9.74296 1.50385 8.69996C1.63635 8.27816 2.0301 7.99343 2.47217 7.99974L2.5 7.99994C3.60457 7.99994 4.5 7.1045 4.5 5.99994C4.5 5.68103 4.42608 5.38222 4.29539 5.11715C4.10003 4.72091 4.18782 4.24343 4.51135 3.9426C5.78257 2.76058 7.33529 1.87491 9.05927 1.39769ZM6.36833 4.9792C6.45429 5.30561 6.5 5.64788 6.5 5.99994C6.5 7.95677 5.09485 9.58541 3.2385 9.9319C3.08262 10.5951 3 11.2874 3 11.9999C3 12.3516 3.02012 12.6982 3.05921 13.0387C5.00362 13.3107 6.5 14.9806 6.5 16.9999C6.5 17.6392 6.3495 18.2444 6.08229 18.781C6.8323 19.4362 7.69143 19.9685 8.62831 20.3474C9.33859 19.2369 10.5824 18.4999 12 18.4999C13.4176 18.4999 14.6614 19.2369 15.3717 20.3474C16.3086 19.9685 17.1677 19.4362 17.9177 18.781C17.6505 18.2444 17.5 17.6392 17.5 16.9999C17.5 14.9806 18.9964 13.3107 20.9408 13.0387C20.9799 12.6982 21 12.3516 21 11.9999C21 11.2874 20.9174 10.5951 20.7615 9.9319C18.9052 9.58541 17.5 7.95676 17.5 5.99994C17.5 5.64788 17.5457 5.30561 17.6317 4.9792C16.8739 4.3705 16.0161 3.88233 15.0873 3.54315C14.3545 4.4318 13.2441 4.99994 12 4.99994C10.7559 4.99994 9.64553 4.4318 8.91267 3.54315C7.98386 3.88233 7.12606 4.3705 6.36833 4.9792ZM7.5 11.9999C7.5 9.51465 9.51472 7.49994 12 7.49994C14.4853 7.49994 16.5 9.51465 16.5 11.9999C16.5 14.4852 14.4853 16.4999 12 16.4999C9.51472 16.4999 7.5 14.4852 7.5 11.9999ZM12 9.49994C10.6193 9.49994 9.5 10.6192 9.5 11.9999C9.5 13.3807 10.6193 14.4999 12 14.4999C13.3807 14.4999 14.5 13.3807 14.5 11.9999C14.5 10.6192 13.3807 9.49994 12 9.49994Z" fill="white"/>
</g>
</svg>
