<svg width="20" height="20" viewBox="0 0 20 20" fill="none" xmlns="http://www.w3.org/2000/svg">
<g id="icon_right-small">
<g id="Vector">
<path fill-rule="evenodd" clip-rule="evenodd" d="M4.16667 10.0034C4.16667 9.54318 4.53977 9.17008 5.00001 9.17008H15C15.4602 9.17008 15.8333 9.54318 15.8333 10.0034C15.8333 10.4637 15.4602 10.8368 15 10.8368H5.00001C4.53977 10.8368 4.16667 10.4637 4.16667 10.0034Z" fill="white"/>
<path fill-rule="evenodd" clip-rule="evenodd" d="M9.41075 4.4107C9.73619 4.08527 10.2638 4.08527 10.5893 4.4107L15.5893 9.4107C15.9147 9.73614 15.9147 10.2638 15.5893 10.5892L10.5893 15.5892C10.2638 15.9147 9.73619 15.9147 9.41075 15.5892C9.08531 15.2638 9.08531 14.7361 9.41075 14.4107L13.8215 9.99996L9.41075 5.58921C9.08531 5.26378 9.08531 4.73614 9.41075 4.4107Z" fill="white"/>
</g>
</g>
</svg>
