<svg width="24" height="24" viewBox="0 0 24 24" fill="none" xmlns="http://www.w3.org/2000/svg">
<path d="M1 3C1 2.44772 1.44772 2 2 2H17C17.5523 2 18 2.44772 18 3C18 3.55228 17.5523 4 17 4H3V17H9.5C9.76522 17 10.0196 17.1054 10.2071 17.2929L12 19.0858L13.7929 17.2929C13.9804 17.1054 14.2348 17 14.5 17H21V8C21 7.44772 21.4477 7 22 7C22.5523 7 23 7.44772 23 8V18C23 18.5523 22.5523 19 22 19H14.9142L12.7071 21.2071C12.3166 21.5976 11.6834 21.5976 11.2929 21.2071L9.08579 19H2C1.44772 19 1 18.5523 1 18V3Z" fill="black" fill-opacity="0.85"/>
<path d="M10.5 10C10.5 9.44772 10.9477 9 11.5 9H12.5013C13.0535 9 13.5013 9.44772 13.5013 10C13.5013 10.5523 13.0535 11 12.5013 11H11.5C10.9477 11 10.5 10.5523 10.5 10Z" fill="black" fill-opacity="0.85"/>
<path d="M16.5005 9C15.9483 9 15.5005 9.44772 15.5005 10C15.5005 10.5523 15.9483 11 16.5005 11H17.5C18.0523 11 18.5 10.5523 18.5 10C18.5 9.44772 18.0523 9 17.5 9H16.5005Z" fill="black" fill-opacity="0.85"/>
<path d="M5.50049 10C5.50049 9.44772 5.9482 9 6.50049 9H7.49994C8.05222 9 8.49994 9.44772 8.49994 10C8.49994 10.5523 8.05222 11 7.49994 11H6.50049C5.9482 11 5.50049 10.5523 5.50049 10Z" fill="black" fill-opacity="0.85"/>
<path d="M23 3.5C23 4.32843 22.3284 5 21.5 5C20.6716 5 20 4.32843 20 3.5C20 2.67157 20.6716 2 21.5 2C22.3284 2 23 2.67157 23 3.5Z" fill="black" fill-opacity="0.85"/>
</svg>
