<svg width="24" height="24" viewBox="0 0 24 24" fill="none" xmlns="http://www.w3.org/2000/svg">
<path fill-rule="evenodd" clip-rule="evenodd" d="M3 2C3 1.44772 3.44772 1 4 1H17C17.5523 1 18 1.44772 18 2V4H20C20.5523 4 21 4.44772 21 5V22C21 22.3441 20.8231 22.664 20.5317 22.8469C20.2403 23.0299 19.8753 23.0502 19.5654 22.9006L13.5 19.974L7.43457 22.9006C7.12469 23.0502 6.7597 23.0299 6.46829 22.8469C6.17689 22.664 6 22.3441 6 22V19.118L4.44721 19.8944C4.13723 20.0494 3.76909 20.0329 3.47427 19.8507C3.17945 19.6684 3 19.3466 3 19V2ZM8 6H19V20.4072L13.9346 17.963C13.66 17.8305 13.34 17.8305 13.0654 17.963L8 20.4072C8 15.6047 8 10.8026 8 6ZM16 4H7C6.44772 4 6 4.44772 6 5V16.882L5 17.382V3H16V4Z" fill="black" fill-opacity="0.85"/>
</svg>
