<svg width="24" height="24" viewBox="0 0 24 24" fill="none" xmlns="http://www.w3.org/2000/svg">
<path fill-rule="evenodd" clip-rule="evenodd" d="M5.5 9C5.5 7.06702 7.06702 5.5 9 5.5C10.933 5.5 12.5 7.06702 12.5 9C12.5 10.933 10.933 12.5 9 12.5C7.06702 12.5 5.5 10.933 5.5 9ZM9 7.5C8.17158 7.5 7.5 8.17158 7.5 9C7.5 9.82841 8.17158 10.5 9 10.5C9.82841 10.5 10.5 9.82841 10.5 9C10.5 8.17158 9.82841 7.5 9 7.5Z" fill="black" fill-opacity="0.85"/>
<path fill-rule="evenodd" clip-rule="evenodd" d="M2 4.5C2 3.11929 3.11929 2 4.5 2H19.5C20.8807 2 22 3.1193 22 4.5V19.5C22 20.8807 20.8807 22 19.5 22H4.5C3.1193 22 2 20.8807 2 19.5V4.5ZM4.5 4C4.22386 4 4 4.22386 4 4.5V19.5C4 19.7762 4.22385 20 4.5 20H7.49798L13.0939 12.51C13.9102 11.4175 15.5566 11.4443 16.3367 12.5631L20 17.8164V4.5C20 4.22385 19.7762 4 19.5 4H4.5ZM14.6962 13.707L19.0836 19.9988L9.99539 19.9988L14.6962 13.707Z" fill="black" fill-opacity="0.85"/>
</svg>
