<svg width="22" height="22" viewBox="0 0 22 22" fill="none" xmlns="http://www.w3.org/2000/svg">
<g id="icon_globe">
<g id="Vector">
<path d="M17.9663 1.16686C17.5982 0.819325 17.018 0.836018 16.6705 1.20415C16.323 1.57227 16.3396 2.15244 16.7078 2.49997C18.2743 3.97891 19.2501 6.07219 19.2501 8.39482C19.2501 12.8712 15.6212 16.5001 11.1448 16.5001C8.82219 16.5001 6.72893 15.5243 5.24997 13.9578C4.90243 13.5896 4.32227 13.573 3.95414 13.9205C3.58602 14.268 3.56933 14.8482 3.91687 15.2163C5.49975 16.893 7.66209 18.0201 10.0834 18.2774V19.2501H8.25008C7.74382 19.2501 7.33342 19.6605 7.33342 20.1667C7.33342 20.673 7.74382 21.0834 8.25008 21.0834H13.7501C14.2563 21.0834 14.6667 20.673 14.6667 20.1667C14.6667 19.6605 14.2563 19.2501 13.7501 19.2501H11.9167V18.3039C17.0449 17.9099 21.0834 13.624 21.0834 8.39482C21.0834 5.54701 19.8845 2.97771 17.9663 1.16686Z" fill="#6B6D6F"/>
<path fill-rule="evenodd" clip-rule="evenodd" d="M11.0001 0.91675C6.94999 0.91675 3.66675 4.19999 3.66675 8.25008C3.66675 12.3002 6.94999 15.5834 11.0001 15.5834C15.0502 15.5834 18.3334 12.3002 18.3334 8.25008C18.3334 4.19999 15.0502 0.91675 11.0001 0.91675ZM5.50008 8.25008C5.50008 5.21251 7.96251 2.75008 11.0001 2.75008C14.0377 2.75008 16.5001 5.21251 16.5001 8.25008C16.5001 11.2877 14.0377 13.7501 11.0001 13.7501C7.96251 13.7501 5.50008 11.2877 5.50008 8.25008Z" fill="#6B6D6F"/>
</g>
</g>
</svg>
