<svg width="25" height="24" viewBox="0 0 25 24" fill="none" xmlns="http://www.w3.org/2000/svg">
<g id="icon_emotion-unhappy">
<path id="Vector" d="M12.5 1C18.5751 1 23.5 5.92487 23.5 12C23.5 18.0751 18.5751 23 12.5 23C6.42487 23 1.5 18.0751 1.5 12C1.5 5.92487 6.42487 1 12.5 1ZM12.5 3C7.52943 3 3.5 7.02943 3.5 12C3.5 16.9706 7.52943 21 12.5 21C17.4706 21 21.5 16.9706 21.5 12C21.5 7.02943 17.4706 3 12.5 3ZM12.5 12.5C13.8523 12.5 14.9741 12.9723 15.8519 13.7525C16.3799 14.2219 16.7169 14.6976 16.8944 15.0527C17.1414 15.5467 16.9412 16.1474 16.4472 16.3944C15.9885 16.6237 15.4378 16.4675 15.1637 16.0485L15.1056 15.9472C15.0331 15.8023 14.8388 15.528 14.5231 15.2474C13.9947 14.7776 13.3352 14.5 12.5 14.5C11.6648 14.5 11.0053 14.7776 10.4769 15.2474C10.2063 15.4879 10.0249 15.7238 9.93293 15.8775L9.89443 15.9472C9.64744 16.4411 9.04676 16.6414 8.55279 16.3944C8.05881 16.1474 7.85858 15.5467 8.10557 15.0527C8.28314 14.6976 8.62007 14.2219 9.14814 13.7525C10.0259 12.9723 11.1477 12.5 12.5 12.5ZM16 8C16.5128 8 16.9355 8.38604 16.9933 8.88338L17 9V9.5C17 10.0523 16.5523 10.5 16 10.5C15.4872 10.5 15.0645 10.114 15.0067 9.61662L15 9.5V9C15 8.44772 15.4477 8 16 8ZM9 8C9.51284 8 9.93551 8.38604 9.99327 8.88338L10 9V9.5C10 10.0523 9.55228 10.5 9 10.5C8.48716 10.5 8.06449 10.114 8.00673 9.61662L8 9.5V9C8 8.44772 8.44772 8 9 8Z" fill="#2D2E2F"/>
</g>
</svg>
