<svg width="24" height="24" viewBox="0 0 24 24" fill="none" xmlns="http://www.w3.org/2000/svg">
<path fill-rule="evenodd" clip-rule="evenodd" d="M2.41906 2.09204C2.10942 1.94913 1.74831 1.97387 1.46105 2.15767C1.17379 2.34146 1 2.65898 1 3V18C1 18.3901 1.22679 18.7445 1.58094 18.908L8.07309 21.9043C8.12973 21.9311 8.18842 21.9522 8.24833 21.9678C8.39382 22.0057 8.54524 22.01 8.69125 21.9816C8.76295 21.9676 8.83335 21.9457 8.90109 21.9161L15.485 19.0944L21.5809 21.908C21.8906 22.0509 22.2517 22.0262 22.5389 21.8424C22.8262 21.6586 23 21.341 23 21V6C23 5.60995 22.7732 5.2555 22.4191 5.09205L15.9241 2.09437C15.8812 2.07429 15.8372 2.05738 15.7923 2.04368C15.6968 2.01447 15.5983 1.99999 15.5 2C15.4216 2 15.3431 2.0092 15.266 2.02774C15.2093 2.04138 15.1536 2.06003 15.0996 2.08365L8.51505 4.90559L2.41906 2.09204ZM14.5 4.51654L9.5 6.6594V19.4835L14.5 17.3406V4.51654ZM16.5 17.3602L21 19.4371V6.63982L16.5 4.56291V17.3602ZM3 4.56291L7.5 6.63982V19.4371L3 17.3602V4.56291Z" fill="black" fill-opacity="0.85"/>
</svg>
