<svg width="23" height="22" viewBox="0 0 23 22" fill="none" xmlns="http://www.w3.org/2000/svg">
<g id="icon_alarm-clock">
<path id="Vector (Stroke)" fill-rule="evenodd" clip-rule="evenodd" d="M6.45425 1.30044C6.7485 1.7124 6.65309 2.28491 6.24112 2.57916L3.03279 4.87083C2.62083 5.16509 2.04833 5.06967 1.75407 4.65771C1.45981 4.24575 1.55523 3.67324 1.96719 3.37899L5.17552 1.08732C5.58748 0.793061 6.15999 0.888479 6.45425 1.30044ZM16.8791 1.30044C17.1733 0.888479 17.7458 0.793061 18.1578 1.08732L21.3661 3.37899C21.7781 3.67324 21.8735 4.24575 21.5792 4.65771C21.285 5.06967 20.7125 5.16509 20.3005 4.87083L17.0922 2.57916C16.6802 2.28491 16.5848 1.7124 16.8791 1.30044ZM2.3472 11.9166C2.3472 6.76957 6.51963 2.59714 11.6667 2.59714C16.8136 2.59714 20.9861 6.76958 20.9861 11.9166C20.9861 17.0636 16.8136 21.236 11.6667 21.236C6.51963 21.236 2.3472 17.0636 2.3472 11.9166ZM11.6667 4.43047C7.53215 4.43047 4.18053 7.7821 4.18053 11.9166C4.18053 16.0511 7.53215 19.4027 11.6667 19.4027C15.8011 19.4027 19.1528 16.0511 19.1528 11.9166C19.1528 7.78209 15.8011 4.43047 11.6667 4.43047ZM11.5565 6.12029C12.0627 6.12034 12.4731 6.53079 12.473 7.03705L12.4725 11.703L15.7663 14.9968C16.1243 15.3548 16.1243 15.9352 15.7663 16.2931C15.4083 16.6511 14.8279 16.6511 14.47 16.2931L10.9076 12.7308C10.7357 12.5589 10.6391 12.3257 10.6392 12.0826L10.6397 7.03685C10.6398 6.53059 11.0502 6.12023 11.5565 6.12029Z" fill="#6B6D6F"/>
</g>
</svg>
