<svg width="24" height="24" viewBox="0 0 24 24" fill="none" xmlns="http://www.w3.org/2000/svg">
<path fill-rule="evenodd" clip-rule="evenodd" d="M10.9958 5.41836V16C10.9958 16.5523 11.4436 17 11.9958 17C12.5481 17 12.9958 16.5523 12.9958 16V5.41006L15.7929 8.20711C16.1834 8.59763 16.8166 8.59763 17.2071 8.20711C17.5976 7.81658 17.5976 7.18342 17.2071 6.79289L12.7071 2.29289C12.5113 2.0971 12.2545 1.99947 11.9979 2C11.9972 2 11.9965 2 11.9958 2C11.6921 2 11.4199 2.13546 11.2365 2.34927L6.79289 6.79289C6.40237 7.18342 6.40237 7.81658 6.79289 8.20711C7.18342 8.59763 7.81658 8.59763 8.20711 8.20711L10.9958 5.41836ZM21 11C21.5523 11 22 11.4477 22 12V21C22 21.5523 21.5523 22 21 22H3C2.44772 22 2 21.5523 2 21V12.0042C2 11.4519 2.44772 11.0042 3 11.0042C3.55228 11.0042 4 11.4519 4 12.0042V20H20V12C20 11.4477 20.4477 11 21 11Z" fill="black" fill-opacity="0.85"/>
</svg>
