<svg width="24" height="24" viewBox="0 0 24 24" fill="none" xmlns="http://www.w3.org/2000/svg">
<path d="M19.997 2.89844C19.997 2.34615 19.5493 1.89844 18.997 1.89844C18.4448 1.89844 17.997 2.34615 17.997 2.89844V4.00049H17C16.4477 4.00049 16 4.4482 16 5.00049C16 5.55277 16.4477 6.00049 17 6.00049H17.997V6.89842C17.997 7.4507 18.4448 7.89842 18.997 7.89842C19.5493 7.89842 19.997 7.4507 19.997 6.89842V6.00049H21C21.5523 6.00049 22 5.55277 22 5.00049C22 4.4482 21.5523 4.00049 21 4.00049H19.997V2.89844Z" fill="black" fill-opacity="0.85"/>
<path d="M4 4.00049C2.89544 4.00049 2 4.89589 2 6.00049V20.0005C2 21.1051 2.89544 22.0005 4 22.0005H18C19.1046 22.0005 20 21.1051 20 20.0005V10.5005C20 9.9482 19.5523 9.50049 19 9.50049C18.4477 9.50049 18 9.9482 18 10.5005V20.0005H4V6.00049H13.1818C13.7341 6.00049 14.1818 5.55277 14.1818 5.00049C14.1818 4.4482 13.7341 4.00049 13.1818 4.00049H4Z" fill="black" fill-opacity="0.85"/>
<path fill-rule="evenodd" clip-rule="evenodd" d="M13.0645 9.67038C12.8716 9.39942 12.5565 9.24216 12.2239 9.25083C11.8914 9.2595 11.5849 9.43297 11.4063 9.71361L10.3256 11.4119L9.70711 10.7934C9.50189 10.5882 9.21766 10.4822 8.92819 10.5031C8.63873 10.5239 8.37259 10.6695 8.19889 10.902L5.19889 14.9174C4.97239 15.2205 4.93643 15.6256 5.10599 15.9639C5.27554 16.3023 5.62156 16.5159 6 16.5159H16C16.3743 16.5159 16.7173 16.3068 16.8889 15.9741C17.0604 15.6414 17.0317 15.2407 16.8145 14.9358L13.0645 9.67038ZM11.3437 13.5374L12.2967 12.0398L14.0601 14.5159H7.9954L9.10971 13.0244L9.79289 13.7076C10.0074 13.9221 10.3076 14.0276 10.6091 13.9945C10.9106 13.9614 11.1808 13.7933 11.3437 13.5374Z" fill="black" fill-opacity="0.85"/>
</svg>
