<svg width="25" height="24" viewBox="0 0 25 24" fill="none" xmlns="http://www.w3.org/2000/svg">
<g id="icon_like">
<path id="Vector (Stroke)" fill-rule="evenodd" clip-rule="evenodd" d="M1.5 9.5C1.5 5.91017 4.41015 3 8 3C9.74701 3 11.3329 3.68982 12.5 4.80968C13.6671 3.68982 15.253 3 17 3C20.5898 3 23.5 5.91017 23.5 9.5C23.5 12.6341 21.664 15.4994 19.5231 17.6615C17.3724 19.8335 14.7421 21.4718 12.8154 22.1121C12.6106 22.1801 12.3894 22.1801 12.1846 22.1121C10.2579 21.4718 7.62761 19.8335 5.47692 17.6615C3.33596 15.4994 1.5 12.6341 1.5 9.5ZM8 5C5.51472 5 3.5 7.01473 3.5 9.5C3.5 11.8659 4.91404 14.2506 6.89808 16.2543C8.74453 18.119 10.9368 19.5021 12.5 20.1011C14.0632 19.5021 16.2555 18.119 18.1019 16.2543C20.086 14.2506 21.5 11.8659 21.5 9.5C21.5 7.01473 19.4853 5 17 5C15.4789 5 14.1337 5.75379 13.3176 6.91266C13.1303 7.17865 12.8253 7.3369 12.5 7.3369C12.1747 7.3369 11.8697 7.17865 11.6824 6.91266C10.8663 5.75379 9.52112 5 8 5Z" fill="#2D2E2F"/>
</g>
</svg>
