<svg width="25" height="24" viewBox="0 0 25 24" fill="none" xmlns="http://www.w3.org/2000/svg">
<g id="icon_thumbs-up">
<path id="Vector (Stroke)" fill-rule="evenodd" clip-rule="evenodd" d="M10.6862 2.59386C10.8467 2.23273 11.2048 2 11.6 2C13.6434 2 15.3 3.65654 15.3 5.7V8.3H19.6949C20.5141 8.29253 21.2956 8.64426 21.8333 9.26259C22.3723 9.8825 22.612 10.7078 22.4887 11.5201L21.2467 19.62C21.0376 20.9983 19.8465 22.0126 18.4531 22L5.60495 21.9998C4.04766 22.0225 2.71793 20.8783 2.50902 19.3338C2.50301 19.2894 2.5 19.2446 2.5 19.1998V12.8998C2.5 12.855 2.50301 12.8102 2.50902 12.7658C2.70892 11.288 3.98337 9.97674 5.60494 10.0001H7.39453L10.6862 2.59386ZM9 11.3122L12.2013 4.10939C12.8434 4.35225 13.3 4.9728 13.3 5.7V9.3C13.3 9.85228 13.7477 10.3 14.3 10.3H19.7L19.7114 10.2999C19.946 10.2973 20.17 10.3978 20.324 10.5749C20.4781 10.7521 20.5465 10.9879 20.5113 11.2199L19.2696 19.3184L19.2693 19.32C19.2095 19.7145 18.8682 20.0046 18.4693 20.0001L9 20V11.3122ZM7 19.9999L5.59708 19.9998L5.57931 20C5.05106 20.0093 4.59682 19.6354 4.5 19.1216V12.9771C4.60613 12.3979 5.11195 11.9917 5.57931 11.9999L5.597 12.0001H7V19.9999Z" fill="#2D2E2F"/>
</g>
</svg>
