<svg width="16" height="16" viewBox="0 0 16 16" fill="none" xmlns="http://www.w3.org/2000/svg">
<path d="M1.33301 2.00004C1.33301 1.63185 1.63148 1.33337 1.99967 1.33337H7.99691C8.3651 1.33337 8.66357 1.63185 8.66357 2.00004C8.66357 2.36823 8.3651 2.66671 7.99691 2.66671H2.66634V13.3334H7.99967C8.36786 13.3334 8.66634 13.6319 8.66634 14C8.66634 14.3682 8.36786 14.6667 7.99967 14.6667H1.99967C1.63148 14.6667 1.33301 14.3682 1.33301 14V2.00004Z" fill="black" fill-opacity="0.85"/>
<path d="M10.5283 4.52864C10.7886 4.26829 11.2107 4.26829 11.4711 4.52864L14.4347 7.49222C14.5765 7.61447 14.6663 7.79547 14.6663 7.99744L14.6663 7.99866C14.6667 8.16974 14.6016 8.34092 14.4711 8.47145L11.4711 11.4714C11.2107 11.7318 10.7886 11.7318 10.5283 11.4714C10.2679 11.2111 10.2679 10.789 10.5283 10.5286L12.3928 8.6641H5.33301C4.96482 8.6641 4.66634 8.36563 4.66634 7.99744C4.66634 7.62925 4.96482 7.33077 5.33301 7.33077H12.3876L10.5283 5.47145C10.2679 5.2111 10.2679 4.78899 10.5283 4.52864Z" fill="black" fill-opacity="0.85"/>
</svg>
