<svg width="15" height="16" viewBox="0 0 15 16" fill="none" xmlns="http://www.w3.org/2000/svg">
<g id="icon_local-two">
<path id="Combined Shape" d="M7.5 1.125C10.434 1.125 12.8125 3.50348 12.8125 6.4375C12.8125 8.30348 11.9514 10.1904 10.5117 12.0316C10.0008 12.6851 9.44512 13.2944 8.87585 13.8493C8.82895 13.8951 8.78283 13.9396 8.73755 13.9829L8.47633 14.2279L8.23788 14.4428L8.02491 14.6267L7.89483 14.7345C7.66659 14.9205 7.33948 14.922 7.10957 14.738L6.97357 14.6255L6.76156 14.4423L6.52355 14.2278L6.26245 13.9829L6.12415 13.8493C5.55488 13.2944 4.9992 12.6851 4.48825 12.0316C3.04862 10.1904 2.1875 8.30348 2.1875 6.4375C2.1875 3.50348 4.56598 1.125 7.5 1.125ZM7.5 2.375C5.25633 2.375 3.4375 4.19383 3.4375 6.4375C3.4375 7.97259 4.18924 9.61983 5.47298 11.2617C5.94694 11.8678 6.4654 12.4363 6.99671 12.9543L7.24841 13.1951C7.33134 13.2729 7.41439 13.3508 7.5 13.4256L7.75156 13.1951L8.00329 12.9543C8.5346 12.4363 9.05306 11.8678 9.52702 11.2617C10.8108 9.61983 11.5625 7.97259 11.5625 6.4375C11.5625 4.19383 9.74367 2.375 7.5 2.375ZM7.5 3.9375C8.88071 3.9375 10 5.05679 10 6.4375C10 7.81821 8.88071 8.9375 7.5 8.9375C6.11929 8.9375 5 7.81821 5 6.4375C5 5.05679 6.11929 3.9375 7.5 3.9375ZM7.5 5.1875C6.80965 5.1875 6.25 5.74715 6.25 6.4375C6.25 7.12785 6.80965 7.6875 7.5 7.6875C8.19035 7.6875 8.75 7.12785 8.75 6.4375C8.75 5.74715 8.19035 5.1875 7.5 5.1875Z" fill="black" fill-opacity="0.85"/>
</g>
</svg>
