<svg width="14" height="14" viewBox="0 0 14 14" fill="none" xmlns="http://www.w3.org/2000/svg">
<path fill-rule="evenodd" clip-rule="evenodd" d="M6.99984 1.74967C6.03334 1.74967 5.24984 2.53318 5.24984 3.49967C5.24984 4.46617 6.03334 5.24967 6.99984 5.24967C7.96634 5.24967 8.74984 4.46617 8.74984 3.49967C8.74984 2.53318 7.96634 1.74967 6.99984 1.74967ZM4.08317 3.49967C4.08317 1.88884 5.38901 0.583008 6.99984 0.583008C8.61067 0.583008 9.9165 1.88884 9.9165 3.49967C9.9165 5.1105 8.61067 6.41634 6.99984 6.41634C5.38901 6.41634 4.08317 5.1105 4.08317 3.49967ZM1.1665 12.833C1.1665 9.61135 3.77818 6.99967 6.99984 6.99967C10.2215 6.99967 12.8332 9.61135 12.8332 12.833C12.8332 13.1552 12.572 13.4163 12.2498 13.4163C11.9277 13.4163 11.6665 13.1552 11.6665 12.833C11.6665 10.5325 10.0018 8.6207 7.81128 8.23664L8.72404 11.2031C8.78082 11.3877 8.74262 11.5883 8.62201 11.7391L7.45534 13.1974C7.34464 13.3358 7.17704 13.4163 6.99984 13.4163C6.82263 13.4163 6.65503 13.3358 6.54433 13.1974L5.37766 11.7391C5.25706 11.5883 5.21886 11.3877 5.27563 11.2031L6.1884 8.23664C3.99788 8.6207 2.33317 10.5325 2.33317 12.833C2.33317 13.1552 2.072 13.4163 1.74984 13.4163C1.42767 13.4163 1.1665 13.1552 1.1665 12.833ZM6.99984 9.56656L6.48147 11.2513L6.99984 11.8992L7.51821 11.2513L6.99984 9.56656Z" fill="#C8C9CA"/>
</svg>
