<svg width="24" height="24" viewBox="0 0 24 24" fill="none" xmlns="http://www.w3.org/2000/svg">
<path fill-rule="evenodd" clip-rule="evenodd" d="M17.5116 1.24406C17.9021 0.853541 18.5353 0.853541 18.9258 1.24406L23.1685 5.48669C23.356 5.67423 23.4613 5.92858 23.4613 6.1938C23.4613 6.45902 23.356 6.71337 23.1685 6.90091L18.9264 11.143C18.9262 11.1432 18.926 11.1434 18.9258 11.1436C18.9256 11.1437 18.9254 11.1439 18.9252 11.1441L7.61211 22.4573C7.42456 22.6448 7.1702 22.7502 6.90498 22.7502L2.66246 22.7501C2.1102 22.75 1.6625 22.3023 1.66248 21.7501L1.66235 17.5075C1.66235 17.2423 1.7677 16.9879 1.95525 16.8004L13.2657 5.48997C13.2668 5.48888 13.2679 5.48779 13.2689 5.48669C13.27 5.4856 13.2711 5.48452 13.2722 5.48343L17.5116 1.24406ZM13.9761 7.60802L3.66237 17.9217L3.66245 20.7501L6.49079 20.7501L16.8045 10.4365L13.9761 7.60802ZM18.2187 9.02224L15.3903 6.19381L18.2187 3.36538L21.0471 6.1938L18.2187 9.02224Z" fill="black" fill-opacity="0.85"/>
</svg>
