<svg width="22" height="22" viewBox="0 0 22 22" fill="none" xmlns="http://www.w3.org/2000/svg">
<g id="icon_mail">
<path id="Combined Shape" d="M20.1665 3.20837C20.3027 3.21112 20.432 3.23602 20.561 3.2974C20.6942 3.36106 20.8113 3.45697 20.8998 3.57504C20.9443 3.6356 20.9579 3.66157 20.8998 3.57504C21.0186 3.73335 21.0832 3.9272 21.0832 4.12504C21.0808 4.05502 21.0828 4.07621 21.0832 4.12504V17.875C21.0832 18.3813 20.6728 18.7917 20.1665 18.7917H1.83317C1.32691 18.7917 0.916504 18.3813 0.916504 17.875V4.12504C0.916504 3.96093 0.961023 3.79798 1.04477 3.65724C1.21542 3.36969 1.51101 3.21487 1.83317 3.20837H20.1665ZM19.2498 5.95837L11.5498 11.7334C11.2565 11.9534 10.8642 11.9754 10.551 11.7994L10.4498 11.7334L2.74984 5.95837V16.9584H19.2498V5.95837ZM4.58317 5.04171L10.9998 9.85421L17.4165 5.04171H4.58317Z" fill="#6B6D6F"/>
</g>
</svg>
