<svg width="24" height="25" viewBox="0 0 24 25" fill="none" xmlns="http://www.w3.org/2000/svg">
<path fill-rule="evenodd" clip-rule="evenodd" d="M2 7.5C2 6.94772 2.44772 6.5 3 6.5H21C21.5523 6.5 22 6.94772 22 7.5C22 8.05228 21.5523 8.5 21 8.5H3C2.44772 8.5 2 8.05228 2 7.5ZM5 12.5C5 11.9477 5.44772 11.5 6 11.5H18C18.5523 11.5 19 11.9477 19 12.5C19 13.0523 18.5523 13.5 18 13.5H6C5.44772 13.5 5 13.0523 5 12.5ZM9 17.5C9 16.9477 9.44772 16.5 10 16.5H14C14.5523 16.5 15 16.9477 15 17.5C15 18.0523 14.5523 18.5 14 18.5H10C9.44772 18.5 9 18.0523 9 17.5Z" fill="black" fill-opacity="0.85"/>
</svg>
