<svg width="23" height="22" viewBox="0 0 23 22" fill="none" xmlns="http://www.w3.org/2000/svg">
<g id="icon_phone-call">
<path id="Combined Shape" d="M7.38822 3.89533C8.00296 3.89533 8.56936 4.22873 8.86782 4.76625L9.90284 6.63068C10.1739 7.11893 10.1866 7.70947 9.93686 8.20889L9.08228 9.9171L9.0954 9.95843L9.17561 10.1851C9.33667 10.6103 9.5608 11.0362 9.85552 11.4306C9.98538 11.6043 10.1266 11.7684 10.2795 11.9213C10.4306 12.0724 10.5924 12.2119 10.7635 12.3402C11.158 12.6359 11.584 12.8602 12.0092 13.0209C12.0922 13.0522 12.1682 13.0787 12.2357 13.1007L12.2769 13.1135L13.9866 12.2592C14.4365 12.0343 14.9601 12.0222 15.4164 12.22L15.5659 12.2937L17.4355 13.3332C17.9725 13.6317 18.3056 14.1979 18.3056 14.8123V16.9588C18.3056 18.6302 16.7233 19.8287 15.1378 19.2936C11.9688 18.2244 9.16147 16.7865 7.28795 14.9129C5.41439 13.0394 3.9765 10.232 2.90723 7.06307C2.37224 5.47754 3.57067 3.89533 5.24208 3.89533H7.38822ZM7.38825 5.58764H5.24208C4.70688 5.58764 4.35306 6.05477 4.51072 6.52202C5.50367 9.46481 6.83773 12.0695 8.4846 13.7163C10.1314 15.3631 12.7361 16.6972 15.6789 17.6902C16.1461 17.8478 16.6132 17.494 16.6132 16.9588V14.8123L14.7435 13.7728L12.7496 14.7698C12.5833 14.8529 12.3943 14.879 12.2118 14.844C11.5675 14.7204 10.6597 14.3775 9.74839 13.6942C9.5143 13.5187 9.29183 13.3269 9.08289 13.118C8.87143 12.9065 8.67738 12.6811 8.49996 12.4437C7.82033 11.5343 7.4773 10.6287 7.35234 9.98625C7.31671 9.80305 7.34264 9.61321 7.42611 9.44629L8.42324 7.45202L7.38825 5.58764ZM15.0914 2.76867C16.1955 3.04552 17.2081 3.6145 18.03 4.43638C18.8519 5.2583 19.4209 6.27095 19.6977 7.37501C19.9016 8.18806 19.9427 9.03487 19.8191 9.86379C19.7502 10.326 19.3196 10.6448 18.8574 10.5759C18.3952 10.507 18.0764 10.0765 18.1453 9.61426C18.236 9.00549 18.2059 8.38336 18.0562 7.78661C17.8534 6.97763 17.4371 6.23683 16.8333 5.63303C16.2296 5.02926 15.4888 4.61301 14.6798 4.41016C14.083 4.26053 13.4609 4.23035 12.8521 4.3211C12.3899 4.39 11.9593 4.07115 11.8904 3.60894C11.8215 3.14673 12.1404 2.71618 12.6026 2.64728C13.4315 2.52373 14.2783 2.5648 15.0914 2.76867ZM15.6538 6.6297C16.4217 7.39759 16.765 8.47066 16.608 9.52401C16.5391 9.98622 16.1085 10.3051 15.6463 10.2362C15.2171 10.1722 14.9115 9.79637 14.9252 9.37293L14.9342 9.27449C15.0129 8.74605 14.8417 8.21092 14.4572 7.82636C14.111 7.48021 13.6429 7.3069 13.1676 7.33312L13.009 7.34929C12.5468 7.41819 12.1162 7.09935 12.0473 6.63714C11.9784 6.17493 12.2973 5.74438 12.7595 5.67548C13.8128 5.51846 14.8858 5.8618 15.6538 6.6297Z" fill="#6B6D6F"/>
</g>
</svg>
