<svg width="24" height="24" viewBox="0 0 24 24" fill="none" xmlns="http://www.w3.org/2000/svg">
<path fill-rule="evenodd" clip-rule="evenodd" d="M12.7236 1.02627L12.6919 1.0185C12.5902 0.998706 12.486 0.994782 12.3838 1.00733C12.2568 1.00246 12.1289 1 12 1L11.7278 1.00368L11.6174 1.00689C11.5038 0.993523 11.3883 0.999582 11.2764 1.02627C6.72809 1.35934 3.5 4.82104 3.5 9.17575C3.5 9.38332 3.50709 9.59034 3.5209 9.79656C3.47868 9.99912 3.50151 10.2067 3.58006 10.3916C3.97014 13.3678 5.74529 16.103 8.01274 17.6593C8.0146 17.6707 8.01665 17.6821 8.01892 17.6936L8.71892 21.2412C8.76895 21.4948 8.91523 21.7191 9.12708 21.8672L9.36717 22.0265C9.5507 22.1429 9.7788 22.2767 10.037 22.411C10.3523 22.5749 10.6635 22.7119 10.9678 22.813C11.3277 22.9327 11.6697 23 12 23C12.3303 23 12.6723 22.9327 13.0322 22.813C13.3365 22.7119 13.6477 22.5749 13.963 22.411C14.2212 22.2767 14.4493 22.1429 14.6328 22.0265L14.8729 21.8672C15.0848 21.7191 15.231 21.4948 15.2811 21.2412L15.9782 17.7085L15.9859 17.6589C18.5608 15.8931 20.5 12.6082 20.5 9.17575C20.5 4.82105 17.2719 1.35935 12.7236 1.02627ZM12.3475 18.9884C12.5124 19.0137 12.6822 18.9976 12.8397 18.9396C13.1398 18.8967 13.4384 18.8316 13.7339 18.7456L13.401 20.434L13.3207 20.4828C13.2342 20.5327 13.1399 20.5847 13.0402 20.6366C12.8122 20.7552 12.5948 20.8508 12.4013 20.9151C12.2289 20.9725 12.089 21 12 21C11.911 21 11.7711 20.9725 11.5987 20.9151C11.4052 20.8508 11.1878 20.7552 10.9598 20.6366L10.7456 20.5206L10.598 20.434L10.2648 18.7462C10.5606 18.8323 10.8595 18.8976 11.1598 18.9406C11.3165 18.9972 11.4842 19.0133 11.6465 18.9892C11.7643 18.9964 11.8821 19 12 19L12.2244 18.9956L12.3475 18.9884ZM12 3L12.0655 3.00071C13.1176 4.17711 13.9818 5.66626 14.4935 7.17782L14.2943 7.19917C13.5221 7.26935 12.6758 7.23343 11.8544 7.12979C11.8027 7.12327 11.7532 7.11676 11.7061 7.11033L11.4534 7.07333L11.1967 7.02844C10.6552 6.91966 10.1281 7.27043 10.0193 7.8119C9.91051 8.35336 10.2613 8.88049 10.8027 8.98926L11.0027 9.02605L11.2718 9.06871L11.6041 9.11406C12.5569 9.23428 13.5396 9.27599 14.4753 9.19097C14.6362 9.17635 14.7941 9.15802 14.9473 9.13489C14.982 9.42811 15 9.71723 15 10C15 12.1756 13.8689 14.8178 12.2778 16.7418L12.08 16.973L12.001 16.986L11.8825 16.967C10.7521 15.7844 9.91492 14.3772 9.44256 12.8677C10.5623 13.0716 11.6941 13.1025 12.7273 13.0287L12.9641 13.0093L13.1238 12.9923C13.6719 12.9238 14.0606 12.424 13.9921 11.876C13.9236 11.3279 13.4238 10.9392 12.8758 11.0077L12.6854 11.0261L12.2294 11.0539C11.2695 11.0942 10.2205 11.0243 9.24256 10.7799L9.02794 10.7234C9.0094 10.4833 9 10.242 9 10C9 7.35604 10.0471 4.89442 11.9075 3.00107L12 3ZM18.3643 7.99468L18.3908 7.98088C18.4627 8.36618 18.5 8.76551 18.5 9.17575C18.5 11.6626 17.1984 14.0695 15.4689 15.5412C16.4148 13.7581 17 11.7901 17 10C17 9.54764 16.9644 9.08618 16.896 8.62029C17.1522 8.52726 17.4063 8.4263 17.6578 8.31834C17.911 8.20962 18.1472 8.10072 18.3643 7.99468ZM8.68065 3.79364L8.79609 3.73466C7.63437 5.59832 7 7.74426 7 10L7.00052 10.0207C6.50714 9.82181 6.02006 9.60949 5.56016 9.39722L5.50268 9.3715C5.5009 9.30631 5.5 9.24106 5.5 9.17575C5.5 6.83047 6.71771 4.84145 8.68065 3.79364ZM15.1189 3.80036L15.0247 3.64611C16.1754 4.18549 17.0952 5.03497 17.6997 6.08852C17.4402 6.22242 17.162 6.35465 16.8687 6.4806C16.7225 6.54334 16.5756 6.60323 16.4288 6.65808C16.1067 5.67379 15.66 4.7048 15.1189 3.80036ZM8.29764 15.3361C7.28447 14.4024 6.43935 13.146 5.95151 11.7516L6.32602 11.905C6.62463 12.0245 6.91785 12.1362 7.20402 12.2389L7.25816 12.4185C7.47552 13.4301 7.82643 14.4101 8.29764 15.3361Z" fill="black" fill-opacity="0.85"/>
</svg>
