<svg width="16" height="16" viewBox="0 0 16 16" fill="none" xmlns="http://www.w3.org/2000/svg">
<path d="M6.66699 5.99996C7.03518 5.99996 7.33366 6.29844 7.33366 6.66663V11C7.33366 11.3681 7.03518 11.6666 6.66699 11.6666C6.2988 11.6666 6.00033 11.3681 6.00033 11V6.66663C6.00033 6.29844 6.2988 5.99996 6.66699 5.99996Z" fill="black" fill-opacity="0.85"/>
<path d="M10.0003 6.66663C10.0003 6.29844 9.70185 5.99996 9.33366 5.99996C8.96547 5.99996 8.66699 6.29844 8.66699 6.66663V11C8.66699 11.3681 8.96547 11.6666 9.33366 11.6666C9.70185 11.6666 10.0003 11.3681 10.0003 11V6.66663Z" fill="black" fill-opacity="0.85"/>
<path fill-rule="evenodd" clip-rule="evenodd" d="M6.42999 0.666626C6.18653 0.666626 5.96242 0.799345 5.8454 1.01284L4.93884 2.66663H1.33366C0.965469 2.66663 0.666992 2.9651 0.666992 3.33329C0.666992 3.70148 0.965469 3.99996 1.33366 3.99996H2.33366V14.6666C2.33366 15.0348 2.63214 15.3333 3.00033 15.3333H13.0003C13.3685 15.3333 13.667 15.0348 13.667 14.6666V3.99996H14.667C15.0352 3.99996 15.3337 3.70148 15.3337 3.33329C15.3337 2.9651 15.0352 2.66663 14.667 2.66663H11.0656L10.18 1.01782C10.0638 0.801551 9.83819 0.666626 9.59269 0.666626H6.42999ZM9.55213 2.66663L9.19404 1.99996H6.82481L6.45936 2.66663H9.55213ZM3.66699 3.99996V14H12.3337V3.99996H3.66699Z" fill="black" fill-opacity="0.85"/>
</svg>
