<svg width="24" height="24" viewBox="0 0 24 24" fill="none" xmlns="http://www.w3.org/2000/svg">
<path d="M18.8714 14.9285C19.3842 14.7234 19.6336 14.1414 19.4285 13.6286C19.2234 13.1158 18.6414 12.8664 18.1286 13.0715L17.6078 13.2799C17.095 13.485 16.8456 14.0669 17.0507 14.5797C17.2558 15.0925 17.8378 15.3419 18.3506 15.1368L18.8714 14.9285Z" fill="black" fill-opacity="0.85"/>
<path d="M15.2256 16.3868C15.7383 16.1817 15.9878 15.5997 15.7826 15.0869C15.5775 14.5742 14.9956 14.3247 14.4828 14.5299L13.4411 14.9465C12.9283 15.1516 12.6789 15.7336 12.884 16.2464C13.0891 16.7592 13.6711 17.0086 14.1839 16.8035L15.2256 16.3868Z" fill="black" fill-opacity="0.85"/>
<path d="M11.0589 18.0535C11.5717 17.8484 11.8211 17.2664 11.616 16.7536C11.4109 16.2408 10.8289 15.9914 10.3161 16.1965L9.27444 16.6132C8.76166 16.8183 8.51224 17.4003 8.71736 17.9131C8.92247 18.4258 9.50444 18.6753 10.0172 18.4701L11.0589 18.0535Z" fill="black" fill-opacity="0.85"/>
<path d="M6.89222 19.7201C7.40501 19.515 7.65442 18.9331 7.44931 18.4203C7.2442 17.9075 6.66223 17.6581 6.14944 17.8632L5.62861 18.0715C5.11583 18.2766 4.86641 18.8586 5.07152 19.3714C5.27664 19.8842 5.85861 20.1336 6.37139 19.9285L6.89222 19.7201Z" fill="black" fill-opacity="0.85"/>
<path fill-rule="evenodd" clip-rule="evenodd" d="M4 11.5C4 9.84315 5.34315 8.5 7 8.5C8.65685 8.5 10 9.84315 10 11.5C10 12.1142 9.7401 12.8082 9.39443 13.4995C9.03174 14.2249 8.50288 15.0838 7.82279 16.0683C7.63608 16.3386 7.32852 16.5 7 16.5C6.67148 16.5 6.36392 16.3386 6.17721 16.0683C5.49712 15.0838 4.96826 14.2249 4.60557 13.4995C4.2599 12.8082 4 12.1142 4 11.5ZM7 10.5C6.44772 10.5 6 10.9477 6 11.5C6 11.6222 6.07343 11.9631 6.39443 12.6051C6.55116 12.9185 6.75234 13.2759 7 13.6781C7.24766 13.2759 7.44884 12.9185 7.60557 12.6051C7.92657 11.9631 8 11.6222 8 11.5C8 10.9477 7.55228 10.5 7 10.5Z" fill="black" fill-opacity="0.85"/>
<path fill-rule="evenodd" clip-rule="evenodd" d="M17 4C15.3431 4 14 5.34315 14 7C14 7.61416 14.2599 8.30815 14.6056 8.9995C14.9683 9.72487 15.4971 10.5838 16.1772 11.5683C16.3639 11.8386 16.6715 12 17 12C17.3285 12 17.6361 11.8386 17.8228 11.5683C18.5029 10.5838 19.0317 9.72487 19.3944 8.9995C19.7401 8.30815 20 7.61416 20 7C20 5.34315 18.6569 4 17 4ZM16 7C16 6.44772 16.4477 6 17 6C17.5523 6 18 6.44772 18 7C18 7.12222 17.9266 7.46308 17.6056 8.10507C17.4488 8.41854 17.2477 8.77586 17 9.17812C16.7523 8.77586 16.5512 8.41854 16.3944 8.10507C16.0734 7.46308 16 7.12222 16 7Z" fill="black" fill-opacity="0.85"/>
<path fill-rule="evenodd" clip-rule="evenodd" d="M3.5 1C2.11929 1 1 2.11929 1 3.5V20.5C1 21.8807 2.11929 23 3.5 23H20.5C21.8807 23 23 21.8807 23 20.5V3.5C23 2.11929 21.8807 1 20.5 1H3.5ZM3 3.5C3 3.22386 3.22386 3 3.5 3H20.5C20.7761 3 21 3.22386 21 3.5V20.5C21 20.7761 20.7761 21 20.5 21H3.5C3.22386 21 3 20.7761 3 20.5V3.5Z" fill="black" fill-opacity="0.85"/>
</svg>
