<svg width="20" height="20" viewBox="0 0 20 20" fill="none" xmlns="http://www.w3.org/2000/svg">
<path d="M7.23958 7.58331C7.23958 8.10494 6.81983 8.52777 6.30208 8.52777C5.78433 8.52777 5.36458 8.10494 5.36458 7.58331C5.36458 7.06173 5.78433 6.63886 6.30208 6.63886C6.81983 6.63886 7.23958 7.06173 7.23958 7.58331Z" fill="black" fill-opacity="0.85"/>
<path d="M10.9896 7.58331C10.9896 8.10494 10.5698 8.52777 10.0521 8.52777C9.53433 8.52777 9.11458 8.10494 9.11458 7.58331C9.11458 7.06173 9.53433 6.63886 10.0521 6.63886C10.5698 6.63886 10.9896 7.06173 10.9896 7.58331Z" fill="black" fill-opacity="0.85"/>
<path d="M11.3542 12.1249C11.3542 12.5161 11.669 12.8333 12.0573 12.8333C12.4456 12.8333 12.7604 12.5161 12.7604 12.1249C12.7604 11.7337 12.4456 11.4166 12.0573 11.4166C11.669 11.4166 11.3542 11.7337 11.3542 12.1249Z" fill="black" fill-opacity="0.85"/>
<path d="M14.1667 12.1249C14.1667 12.5161 14.4815 12.8333 14.8698 12.8333C15.2581 12.8333 15.5729 12.5161 15.5729 12.1249C15.5729 11.7337 15.2581 11.4166 14.8698 11.4166C14.4815 11.4166 14.1667 11.7337 14.1667 12.1249Z" fill="black" fill-opacity="0.85"/>
<path fill-rule="evenodd" clip-rule="evenodd" d="M1.25 9.16663C1.25 5.02447 4.60785 1.66663 8.75 1.66663C12.7237 1.66663 15.9754 4.75673 16.2335 8.66526C17.7418 9.57761 18.75 11.2335 18.75 13.125C18.75 13.8214 18.6129 14.4877 18.3636 15.0968L18.7388 17.3639C18.7897 17.6716 18.6646 17.982 18.4144 18.1683C18.1643 18.3546 17.8311 18.3856 17.5508 18.2487L16.2146 17.5958C15.4329 18.064 14.5179 18.3333 13.5417 18.3333C12.0107 18.3333 10.634 17.6727 9.68103 16.621C8.60278 16.749 7.48845 16.633 6.34661 16.2919L3.66655 17.443C3.38659 17.5633 3.06331 17.5211 2.82352 17.3331C2.58373 17.1451 2.46566 16.8413 2.51562 16.5407L2.95076 13.9228C1.88848 12.6289 1.25 10.9715 1.25 9.16663ZM8.68241 15.0035C8.45697 14.4207 8.33333 13.7873 8.33333 13.125C8.33333 10.2485 10.6652 7.91663 13.5417 7.91663C13.8572 7.91663 14.1663 7.94469 14.4664 7.99847C13.9254 5.33671 11.5716 3.33329 8.75 3.33329C5.52832 3.33329 2.91667 5.94495 2.91667 9.16663C2.91667 10.6874 3.49755 12.0707 4.45101 13.1096C4.6244 13.2985 4.70115 13.5567 4.6591 13.8097L4.40974 15.3099L5.97321 14.6384C6.16075 14.5578 6.37133 14.5489 6.56502 14.6133C7.31087 14.8613 8.01534 14.9885 8.68241 15.0035ZM10 13.125C10 11.1689 11.5857 9.58329 13.5417 9.58329C15.4977 9.58329 17.0833 11.1689 17.0833 13.125C17.0833 13.6624 16.9642 14.1698 16.7516 14.624C16.7118 14.7056 16.6851 14.7941 16.6737 14.8864C16.6634 14.9699 16.666 15.0535 16.6805 15.1347L16.8307 16.0419L16.5322 15.8961C16.3891 15.8225 16.2275 15.7921 16.0682 15.8078C15.9557 15.8189 15.8443 15.853 15.7414 15.9112C15.7062 15.931 15.6723 15.9534 15.6401 15.9784C15.0528 16.4112 14.3283 16.6666 13.5417 16.6666C11.5857 16.6666 10 15.081 10 13.125Z" fill="black" fill-opacity="0.85"/>
</svg>
