<svg width="23" height="22" viewBox="0 0 23 22" fill="none" xmlns="http://www.w3.org/2000/svg">
<g id="icon_shop">
<path id="Vector" d="M3.91699 21.0837C3.44689 21.0837 3.05944 20.7298 3.00649 20.2739L3.00033 20.167L3.00064 10.6898C2.81335 10.6236 2.62974 10.5434 2.45134 10.4493L2.25304 10.3376L1.61205 9.95303C1.33594 9.78737 1.16699 9.48899 1.16699 9.16699V5.50033C1.16699 4.99406 1.5774 4.58366 2.08366 4.58366L3.00033 4.58274V1.83366C3.00033 1.36356 3.3542 0.976111 3.81009 0.923159L3.91699 0.916992H18.5837C19.0538 0.916992 19.4412 1.27086 19.4942 1.72676L19.5003 1.83366V4.58274L20.417 4.58366C20.8871 4.58366 21.2745 4.93753 21.3275 5.39342L21.3337 5.50033V9.16699C21.3337 9.48898 21.1647 9.78737 20.8886 9.95303L20.2476 10.3376C20.0083 10.4812 19.7581 10.5985 19.501 10.6895L19.5003 20.167C19.5003 20.6371 19.1465 21.0245 18.6906 21.0775L18.5837 21.0837H3.91699ZM15.8337 10.2358L15.6643 10.3376C14.4233 11.0822 12.8884 11.1195 11.618 10.4493L11.4197 10.3376L11.2503 10.2358L11.081 10.3376C9.83996 11.0822 8.30506 11.1195 7.03466 10.4493L6.83635 10.3376L6.66699 10.2358L6.49764 10.3376C5.9806 10.6478 5.41254 10.8353 4.83385 10.8999L4.83366 19.2503H8.04199V14.667C8.04199 14.1969 8.39586 13.8094 8.85176 13.7565L8.95866 13.7503H13.542C14.0483 13.7503 14.4587 14.1607 14.4587 14.667V19.2503H17.667L17.6677 10.9C17.0887 10.8355 16.5203 10.648 16.003 10.3376L15.8337 10.2358ZM12.6253 15.5837H9.87533V19.2503H12.6253V15.5837ZM18.5681 6.41608L3.00033 6.41699V8.64816L3.19628 8.76555C3.87363 9.17197 4.70857 9.19906 5.40694 8.84683L5.55439 8.76555L6.19537 8.38096C6.48566 8.20678 6.84832 8.20678 7.13861 8.38096L7.7796 8.76555C8.50534 9.201 9.41198 9.201 10.1377 8.76555L10.7787 8.38096C11.069 8.20678 11.4317 8.20678 11.7219 8.38096L12.3629 8.76555C13.0887 9.201 13.9953 9.201 14.7211 8.76555L15.362 8.38096C15.6523 8.20678 16.015 8.20678 16.3053 8.38096L16.9463 8.76555C17.672 9.201 18.5786 9.201 19.3044 8.76555L19.5003 8.64724V6.41699L18.5995 6.41686C18.5942 6.41695 18.589 6.41699 18.5837 6.41699L18.5681 6.41608ZM17.667 2.75033H4.83366V4.58274H17.667V2.75033Z" fill="#6B6D6F"/>
</g>
</svg>
