<svg width="25" height="24" viewBox="0 0 25 24" fill="none" xmlns="http://www.w3.org/2000/svg">
<g id="icon_light">
<g id="Vector">
<path d="M13.5 8C13.5 7.44772 13.0523 7 12.5 7C11.9477 7 11.5 7.44772 11.5 8V11C11.5 11.5523 11.9477 12 12.5 12C13.0523 12 13.5 11.5523 13.5 11V8Z" fill="#2D2E2F"/>
<path d="M20.2782 11.6358C20.6687 11.2453 20.6687 10.6121 20.2782 10.2216C19.8877 9.83108 19.2545 9.83108 18.864 10.2216L16.7426 12.3429C16.3521 12.7334 16.3521 13.3666 16.7426 13.7571C17.1331 14.1476 17.7663 14.1476 18.1568 13.7571L20.2782 11.6358Z" fill="#2D2E2F"/>
<path d="M18.5 18C18.5 17.4477 18.9477 17 19.5 17H22.5C23.0523 17 23.5 17.4477 23.5 18C23.5 18.5523 23.0523 19 22.5 19H19.5C18.9477 19 18.5 18.5523 18.5 18Z" fill="#2D2E2F"/>
<path d="M2.5 17C1.94772 17 1.5 17.4477 1.5 18C1.5 18.5523 1.94772 19 2.5 19H5.5C6.05228 19 6.5 18.5523 6.5 18C6.5 17.4477 6.05228 17 5.5 17H2.5Z" fill="#2D2E2F"/>
<path d="M4.72184 10.2216C5.11236 9.83108 5.74553 9.83108 6.13605 10.2216L8.2574 12.3429C8.64793 12.7334 8.64793 13.3666 8.25741 13.7571C7.86689 14.1476 7.23373 14.1476 6.8432 13.7571L4.72186 11.6358C4.33133 11.2453 4.33132 10.6121 4.72184 10.2216Z" fill="#2D2E2F"/>
<path d="M9.5 17C8.94772 17 8.5 17.4477 8.5 18C8.5 18.5523 8.94772 19 9.5 19H15.5C16.0523 19 16.5 18.5523 16.5 18C16.5 17.4477 16.0523 17 15.5 17H9.5Z" fill="#2D2E2F"/>
</g>
</g>
</svg>
