<svg width="20" height="20" viewBox="0 0 20 20" fill="none" xmlns="http://www.w3.org/2000/svg">
<path fill-rule="evenodd" clip-rule="evenodd" d="M9.99984 2.50004C8.61913 2.50004 7.49984 3.61933 7.49984 5.00004C7.49984 6.38075 8.61913 7.50004 9.99984 7.50004C11.3805 7.50004 12.4998 6.38075 12.4998 5.00004C12.4998 3.61933 11.3805 2.50004 9.99984 2.50004ZM5.83317 5.00004C5.83317 2.69885 7.69865 0.833374 9.99984 0.833374C12.301 0.833374 14.1665 2.69885 14.1665 5.00004C14.1665 7.30123 12.301 9.16671 9.99984 9.16671C7.69865 9.16671 5.83317 7.30123 5.83317 5.00004ZM1.6665 18.3334C1.6665 13.731 5.39748 10 9.99984 10C14.6022 10 18.3332 13.731 18.3332 18.3334C18.3332 18.7936 17.9601 19.1667 17.4998 19.1667C17.0396 19.1667 16.6665 18.7936 16.6665 18.3334C16.6665 14.6515 13.6817 11.6667 9.99984 11.6667C6.31795 11.6667 3.33317 14.6515 3.33317 18.3334C3.33317 18.7936 2.96007 19.1667 2.49984 19.1667C2.0396 19.1667 1.6665 18.7936 1.6665 18.3334ZM9.99984 13.3334C10.4601 13.3334 10.8332 13.7065 10.8332 14.1667V15.4167H12.0832C12.5434 15.4167 12.9165 15.7898 12.9165 16.25C12.9165 16.7103 12.5434 17.0834 12.0832 17.0834H10.8332V18.3334C10.8332 18.7936 10.4601 19.1667 9.99984 19.1667C9.5396 19.1667 9.1665 18.7936 9.1665 18.3334V17.0834H7.9165C7.45627 17.0834 7.08317 16.7103 7.08317 16.25C7.08317 15.7898 7.45627 15.4167 7.9165 15.4167H9.1665V14.1667C9.1665 13.7065 9.5396 13.3334 9.99984 13.3334Z" fill="black" fill-opacity="0.85"/>
</svg>
