<svg width="24" height="25" viewBox="0 0 24 25" fill="none" xmlns="http://www.w3.org/2000/svg">
<path fill-rule="evenodd" clip-rule="evenodd" d="M4.22183 4.72182C6.21136 2.73232 8.96273 1.5 12 1.5C15.0373 1.5 17.7886 2.73231 19.7782 4.72182C21.7677 6.71135 23 9.46273 23 12.5C23 15.5373 21.7677 18.2886 19.7782 20.2782C17.7886 22.2677 15.0373 23.5 12 23.5C8.96273 23.5 6.21136 22.2677 4.22183 20.2782C2.23232 18.2886 1 15.5373 1 12.5C1 9.46273 2.23233 6.71135 4.22183 4.72182ZM13.25 7.25C13.25 6.55965 12.6903 6 12 6C11.3097 6 10.75 6.55965 10.75 7.25C10.75 7.94035 11.3097 8.5 12 8.5C12.6903 8.5 13.25 7.94035 13.25 7.25ZM11.25 9.5C10.6977 9.5 10.25 9.94772 10.25 10.5C10.25 11.0523 10.6977 11.5 11.25 11.5V16.5H10.5C9.94771 16.5 9.5 16.9477 9.5 17.5C9.5 18.0523 9.94771 18.5 10.5 18.5H14C14.5523 18.5 15 18.0523 15 17.5C15 16.9477 14.5523 16.5 14 16.5H13.25V10.5C13.25 9.94772 12.8023 9.5 12.25 9.5H11.25Z" fill="black" fill-opacity="0.85"/>
</svg>
