<svg width="24" height="24" viewBox="0 0 24 24" fill="none" xmlns="http://www.w3.org/2000/svg">
<path fill-rule="evenodd" clip-rule="evenodd" d="M1 3.5C1 2.11929 2.11929 1 3.5 1H20.5C21.8807 1 23 2.11929 23 3.5V20.5C23 21.8807 21.8807 23 20.5 23H3.5C2.11929 23 1 21.8807 1 20.5V3.5ZM14 7C14 5.34315 15.3431 4 17 4C18.6569 4 20 5.34315 20 7C20 7.61416 19.7401 8.30815 19.3944 8.9995C19.0317 9.72487 18.5029 10.5838 17.8228 11.5683C17.6361 11.8386 17.3285 12 17 12C16.6715 12 16.3639 11.8386 16.1772 11.5683C15.4971 10.5838 14.9683 9.72487 14.6056 8.9995C14.2599 8.30815 14 7.61416 14 7ZM4 11.5C4 9.84315 5.34315 8.5 7 8.5C8.65685 8.5 10 9.84315 10 11.5C10 12.1142 9.7401 12.8082 9.39443 13.4995C9.03174 14.2249 8.50288 15.0838 7.82279 16.0683C7.63608 16.3386 7.32852 16.5 7 16.5C6.67148 16.5 6.36392 16.3386 6.17721 16.0683C5.49712 15.0838 4.96826 14.2249 4.60557 13.4995C4.2599 12.8082 4 12.1142 4 11.5ZM18.8714 14.9283C19.3842 14.7231 19.6336 14.1412 19.4285 13.6284C19.2234 13.1156 18.6414 12.8662 18.1286 13.0713L17.6078 13.2796C17.095 13.4847 16.8456 14.0667 17.0507 14.5795C17.2558 15.0923 17.8378 15.3417 18.3506 15.1366L18.8714 14.9283ZM15.2256 16.3866C15.7384 16.1815 15.9878 15.5995 15.7827 15.0867C15.5776 14.5739 14.9956 14.3245 14.4828 14.5296L13.4411 14.9463C12.9283 15.1514 12.6789 15.7334 12.884 16.2462C13.0892 16.759 13.6711 17.0084 14.1839 16.8033L15.2256 16.3866ZM11.0589 18.0533C11.5717 17.8481 11.8211 17.2662 11.616 16.7534C11.4109 16.2406 10.8289 15.9912 10.3161 16.1963L9.27446 16.613C8.76168 16.8181 8.51227 17.4001 8.71738 17.9128C8.92249 18.4256 9.50446 18.675 10.0172 18.4699L11.0589 18.0533ZM6.89225 19.7199C7.40503 19.5148 7.65445 18.9328 7.44933 18.4201C7.24422 17.9073 6.66225 17.6579 6.14946 17.863L5.62863 18.0713C5.11585 18.2764 4.86643 18.8584 5.07155 19.3712C5.27666 19.884 5.85863 20.1334 6.37141 19.9283L6.89225 19.7199Z" fill="black" fill-opacity="0.85"/>
</svg>
