<svg width="22" height="22" viewBox="0 0 22 22" fill="none" xmlns="http://www.w3.org/2000/svg">
<path d="M10.542 8.70837C10.0357 8.70837 9.62533 9.11878 9.62533 9.62504C9.62533 10.1313 10.0357 10.5417 10.542 10.5417H11.4598C11.9661 10.5417 12.3765 10.1313 12.3765 9.62504C12.3765 9.11878 11.9661 8.70837 11.4598 8.70837H10.542Z" fill="#2D2E2F"/>
<path d="M14.2092 9.62504C14.2092 9.11878 14.6196 8.70837 15.1258 8.70837H16.042C16.5483 8.70837 16.9587 9.11878 16.9587 9.62504C16.9587 10.1313 16.5483 10.5417 16.042 10.5417H15.1258C14.6196 10.5417 14.2092 10.1313 14.2092 9.62504Z" fill="#2D2E2F"/>
<path d="M5.95911 8.70837C5.45285 8.70837 5.04244 9.11878 5.04244 9.62504C5.04244 10.1313 5.45285 10.5417 5.95911 10.5417H6.87527C7.38153 10.5417 7.79194 10.1313 7.79194 9.62504C7.79194 9.11878 7.38153 8.70837 6.87527 8.70837H5.95911Z" fill="#2D2E2F"/>
<path fill-rule="evenodd" clip-rule="evenodd" d="M1.83366 1.83337C1.3274 1.83337 0.916992 2.24378 0.916992 2.75004V16.5C0.916992 17.0063 1.3274 17.4167 1.83366 17.4167H8.32896L10.3521 19.4399C10.7101 19.7979 11.2905 19.7979 11.6485 19.4399L13.6717 17.4167H20.167C20.6733 17.4167 21.0837 17.0063 21.0837 16.5V2.75004C21.0837 2.24378 20.6733 1.83337 20.167 1.83337H1.83366ZM2.75033 15.5834V3.66671H19.2503V15.5834H13.292C13.0489 15.5834 12.8157 15.68 12.6438 15.8519L11.0003 17.4953L9.35684 15.8519C9.18493 15.68 8.95177 15.5834 8.70866 15.5834H2.75033Z" fill="#2D2E2F"/>
<path fill-rule="evenodd" clip-rule="evenodd" d="M2.75 3.66663V15.5833H8.70833C8.95145 15.5833 9.18461 15.6799 9.35651 15.8518L11 17.4953L12.6435 15.8518C12.8154 15.6799 13.0486 15.5833 13.2917 15.5833H19.25V3.66663H2.75ZM10.5417 8.70829C10.0354 8.70829 9.625 9.1187 9.625 9.62496C9.625 10.1312 10.0354 10.5416 10.5417 10.5416H11.4595C11.9657 10.5416 12.3761 10.1312 12.3761 9.62496C12.3761 9.1187 11.9657 8.70829 11.4595 8.70829H10.5417ZM14.2088 9.62496C14.2088 9.1187 14.6192 8.70829 15.1255 8.70829H16.0417C16.5479 8.70829 16.9583 9.1187 16.9583 9.62496C16.9583 10.1312 16.5479 10.5416 16.0417 10.5416H15.1255C14.6192 10.5416 14.2088 10.1312 14.2088 9.62496ZM5.95878 8.70829C5.45252 8.70829 5.04211 9.1187 5.04211 9.62496C5.04211 10.1312 5.45252 10.5416 5.95878 10.5416H6.87494C7.3812 10.5416 7.79161 10.1312 7.79161 9.62496C7.79161 9.1187 7.3812 8.70829 6.87494 8.70829H5.95878Z" fill="#E7632F"/>
</svg>
