<svg width="160" height="156" viewBox="0 0 160 156" fill="none" xmlns="http://www.w3.org/2000/svg">
<g id="noun-map-markers-605471 1" clip-path="url(#clip0_878_4040)">
<g id="Group">
<path id="Vector" d="M42.5 159.999C43.5267 143.553 50.0667 132.199 57.3933 122.419C53.1067 115.659 48.2133 109.546 43.36 103.539C31.8733 89.3394 20 74.6527 20 53.3327C20 50.5194 20.26 47.7527 20.64 45.0127C17.3533 46.826 14.3467 49.0794 11.72 51.7127C4.48 58.9527 0 68.9527 0 79.9994C0 109.999 35 119.999 37.5 159.999H42.5Z" fill="#C8C9CA"/>
<path id="Vector_2" d="M139.358 45.0127C139.738 47.7527 139.998 50.5194 139.998 53.3327C139.998 74.6527 128.124 89.3394 116.638 103.539C111.778 109.546 106.884 115.659 102.604 122.419C109.938 132.199 116.471 143.546 117.498 159.999H122.498C124.998 119.999 159.998 109.999 159.998 79.9994C159.998 68.9527 155.518 58.9527 148.278 51.7127C145.651 49.0794 142.638 46.826 139.358 45.0127Z" fill="#C8C9CA"/>
<path id="Vector_3" d="M83.3337 160C86.667 106.667 133.334 93.3333 133.334 53.3333C133.334 38.6067 127.36 25.2733 117.707 15.62C108.06 5.97333 94.727 0 80.0003 0C65.2737 0 51.9403 5.97333 42.2937 15.62C32.6337 25.2733 26.667 38.6067 26.667 53.3333C26.667 93.3333 73.3337 106.667 76.667 160H83.3337ZM60.0003 53.3333C60.0003 42.2867 68.9603 33.3333 80.0003 33.3333C91.0403 33.3333 100 42.2867 100 53.3333C100 64.38 91.0403 73.3333 80.0003 73.3333C68.9603 73.3333 60.0003 64.38 60.0003 53.3333Z" fill="#C8C9CA"/>
</g>
</g>
<defs>
<clipPath id="clip0_878_4040">
<rect width="160" height="160" fill="white"/>
</clipPath>
</defs>
</svg>
