<svg width="53" height="75" viewBox="0 0 53 75" fill="none" xmlns="http://www.w3.org/2000/svg">
<g id="noun-add-bookmark-537172 1" clip-path="url(#clip0_878_4048)">
<path id="Vector" d="M46.5 0.5H6.5C3.191 0.5 0.5 3.191 0.5 6.5V72.5C0.5 73.238 0.905999 73.916 1.557 74.264C2.207 74.614 2.996 74.573 3.61 74.164L26.5 58.904L49.391 74.164C49.725 74.387 50.114 74.5 50.5 74.5C50.824 74.5 51.148 74.422 51.443 74.264C52.093 73.916 52.5 73.239 52.5 72.5V6.5C52.5 3.191 49.809 0.5 46.5 0.5ZM48.5 68.764L27.609 54.836C27.273 54.611 26.887 54.5 26.5 54.5C26.113 54.5 25.727 54.611 25.391 54.836L4.5 68.764V6.5C4.5 5.396 5.396 4.5 6.5 4.5H46.5C47.604 4.5 48.5 5.396 48.5 6.5V68.764ZM28.5 16.5H24.5V26.5H14.5V30.5H24.5V40.5H28.5V30.5H38.5V26.5H28.5V16.5Z" fill="#C8C9CA"/>
</g>
<defs>
<clipPath id="clip0_878_4048">
<rect width="53" height="75" fill="white"/>
</clipPath>
</defs>
</svg>
