<svg width="24" height="24" viewBox="0 0 24 24" fill="none" xmlns="http://www.w3.org/2000/svg">
<path d="M18.0018 20.6591L18.001 20.66L18.0005 20.6605L17.9993 20.6619L17.9989 20.6624L17.9987 20.6626L17.9985 20.6628L17.9983 20.663L17.9972 20.6642L17.9953 20.6664L17.9854 20.6774C17.9779 20.6857 17.9685 20.6959 17.9573 20.7078C17.9349 20.7315 17.9051 20.7623 17.8678 20.799C17.7931 20.8724 17.688 20.9697 17.5516 21.0826C17.2787 21.3085 16.8795 21.5973 16.3455 21.8821C15.2725 22.4544 13.6743 22.9997 11.4999 22.9997C9.39152 22.9997 7.83431 22.6486 6.72622 22.1668C5.65195 21.6997 4.91713 21.0701 4.60553 20.447L4.59854 20.433L2.56174 16.0199C1.79557 14.3599 2.4362 12.3898 4.0322 11.4979L9.66068 8.35259C10.4546 7.90894 11.4205 7.93404 12.1857 8.40279L12.6906 3.5216C12.7595 2.85551 13.0927 2.24497 13.6155 1.82669L13.7232 1.74046C14.4922 1.12529 15.6009 1.18655 16.2973 1.88287C16.7472 2.33275 16.9999 2.94294 16.9999 3.5792V13.6691L17.8752 12.9689C18.5732 12.4106 19.3739 12.3425 20.0372 12.4585C20.6825 12.5714 21.2611 12.8643 21.6754 13.1357C22.4429 13.6385 22.4749 14.613 22.0276 15.2182L18.0296 20.6272L18.0018 20.6591Z" fill="black" fill-opacity="0.85"/>
</svg>
