<svg width="20" height="20" viewBox="0 0 20 20" fill="none" xmlns="http://www.w3.org/2000/svg">
<g id="icon/people-plus">
<g id="Vector">
<path d="M7.91699 1.66699C5.84592 1.66699 4.16699 3.34593 4.16699 5.41699C4.16699 7.48806 5.84592 9.16699 7.91699 9.16699C9.98806 9.16699 11.667 7.48806 11.667 5.41699C11.667 3.34593 9.98806 1.66699 7.91699 1.66699Z" fill="#0398BE"/>
<path d="M15.0003 11.2503C15.4606 11.2503 15.8337 11.6234 15.8337 12.0837V13.7503H17.5003C17.9606 13.7503 18.3337 14.1234 18.3337 14.5837C18.3337 15.0439 17.9606 15.417 17.5003 15.417H15.8337V17.0837C15.8337 17.5439 15.4606 17.917 15.0003 17.917C14.5401 17.917 14.167 17.5439 14.167 17.0837V15.417H12.5003C12.0401 15.417 11.667 15.0439 11.667 14.5837C11.667 14.1234 12.0401 13.7503 12.5003 13.7503H14.167V12.0837C14.167 11.6234 14.5401 11.2503 15.0003 11.2503Z" fill="#0398BE"/>
<path d="M12.0837 11.667C12.0837 11.2068 11.7106 10.8337 11.2503 10.8337H7.79799C6.89484 10.8337 6.16638 10.8336 5.57649 10.8818C4.96912 10.9315 4.43563 11.0363 3.94206 11.2878C3.15803 11.6873 2.5206 12.3247 2.12113 13.1087C1.86964 13.6023 1.7648 14.1358 1.71517 14.7431C1.66698 15.333 1.66698 16.0615 1.66699 16.9647V17.5003C1.66699 17.9606 2.04009 18.3337 2.50033 18.3337H11.2503C11.7106 18.3337 12.0837 17.9606 12.0837 17.5003C12.0837 17.0401 11.7106 16.667 11.2503 16.667H3.33376C3.33443 15.8946 3.33942 15.3303 3.37631 14.8789C3.41751 14.3746 3.49432 14.0848 3.60615 13.8654C3.84583 13.3949 4.2283 13.0125 4.69869 12.7728C4.91816 12.661 5.20791 12.5842 5.7122 12.543C6.22623 12.501 6.88649 12.5003 7.83366 12.5003H11.2503C11.7106 12.5003 12.0837 12.1272 12.0837 11.667Z" fill="#0398BE"/>
</g>
</g>
</svg>
