<svg width="20" height="20" viewBox="0 0 20 20" fill="none" xmlns="http://www.w3.org/2000/svg">
<path d="M10.0002 1.66663C7.92909 1.66663 6.25016 3.34556 6.25016 5.41663C6.25016 7.4877 7.92909 9.16663 10.0002 9.16663C12.0712 9.16663 13.7502 7.4877 13.7502 5.41663C13.7502 3.34556 12.0712 1.66663 10.0002 1.66663Z" fill="black" fill-opacity="0.85"/>
<path d="M9.73484 10.8327C9.19633 10.8315 8.65669 10.8302 8.11959 10.8669C7.6123 10.9015 7.16374 10.9744 6.73898 11.1504C5.71805 11.5732 4.90689 12.3844 4.48402 13.4053C4.30808 13.8301 4.2351 14.2787 4.20048 14.786C4.16682 15.2793 4.16683 15.8855 4.16683 16.6369V17.4999C4.16683 17.9601 4.53993 18.3332 5.00016 18.3332H15.0002C15.4604 18.3332 15.8335 17.9601 15.8335 17.4999V16.6369C15.8335 15.8855 15.8335 15.2793 15.7998 14.786C15.7652 14.2787 15.6923 13.8301 15.5163 13.4054C15.0935 12.3844 14.2823 11.5733 13.2613 11.1504C12.8366 10.9744 12.388 10.9015 11.8807 10.8669C11.3874 10.8332 10.7812 10.8332 10.0298 10.8332C9.93158 10.8332 9.83316 10.833 9.73484 10.8327Z" fill="black" fill-opacity="0.85"/>
<path d="M5.68365 2.54595C5.94695 2.92343 5.85439 3.44289 5.47691 3.70619C4.93514 4.08408 4.5835 4.70931 4.5835 5.41658C4.5835 6.17342 4.98658 6.83695 5.59376 7.20281C5.98796 7.44035 6.11497 7.95247 5.87743 8.34667C5.6399 8.74088 5.12777 8.86788 4.73357 8.63035C3.64675 7.97546 2.91683 6.78166 2.91683 5.41658C2.91683 4.14152 3.55394 3.01544 4.52342 2.33921C4.9009 2.07591 5.42035 2.16847 5.68365 2.54595Z" fill="black" fill-opacity="0.85"/>
<path d="M14.3166 2.54595C14.5799 2.16847 15.0994 2.07591 15.4769 2.33921C16.4464 3.01544 17.0835 4.14152 17.0835 5.41658C17.0835 6.69158 16.4464 7.81773 15.4769 8.49395C15.0994 8.75725 14.5799 8.66467 14.3166 8.28719C14.0533 7.9097 14.1459 7.39025 14.5234 7.12696C15.0651 6.74909 15.4168 6.12383 15.4168 5.41658C15.4168 4.70931 15.0652 4.08408 14.5234 3.70619C14.1459 3.44289 14.0533 2.92343 14.3166 2.54595Z" fill="black" fill-opacity="0.85"/>
<path d="M16.8917 11.2875C16.4817 11.0785 15.9798 11.2416 15.7709 11.6516C15.562 12.0617 15.725 12.5635 16.1351 12.7725C16.6055 13.0122 16.988 13.3946 17.2276 13.865C17.3395 14.0845 17.4163 14.3743 17.4575 14.8785C17.4995 15.3926 17.5001 16.0528 17.5001 17V17.5C17.5001 17.9602 17.8732 18.3333 18.3334 18.3333C18.7937 18.3333 19.1668 17.9602 19.1668 17.5V16.9644C19.1668 16.0612 19.1668 15.3327 19.1186 14.7428C19.069 14.1355 18.9641 13.602 18.7127 13.1084C18.3132 12.3244 17.6757 11.6869 16.8917 11.2875Z" fill="black" fill-opacity="0.85"/>
<path d="M4.22936 11.6516C4.43831 12.0617 4.27526 12.5635 3.86519 12.7725C3.39479 13.0121 3.01234 13.3946 2.77265 13.865C2.66083 14.0845 2.58401 14.3742 2.54281 14.8785C2.50081 15.3926 2.50016 16.0528 2.50016 17V17.5C2.50016 17.9602 2.12707 18.3333 1.66683 18.3333C1.20659 18.3333 0.833496 17.9602 0.833496 17.5V16.9643C0.833488 16.0612 0.833482 15.3327 0.881679 14.7428C0.931303 14.1355 1.03615 13.602 1.28764 13.1084C1.6871 12.3244 2.32452 11.6869 3.10853 11.2875C3.5186 11.0785 4.02042 11.2416 4.22936 11.6516Z" fill="black" fill-opacity="0.85"/>
</svg>
