<svg width="24" height="24" viewBox="0 0 24 24" fill="none" xmlns="http://www.w3.org/2000/svg">
<path fill-rule="evenodd" clip-rule="evenodd" d="M5.5 8.25C5.5 7.2835 6.2835 6.5 7.25 6.5C8.2165 6.5 9 7.2835 9 8.25C9 9.2165 8.2165 10 7.25 10C6.2835 10 5.5 9.2165 5.5 8.25ZM7.25 8.5C7.38807 8.5 7.5 8.38807 7.5 8.25C7.5 8.11193 7.38807 8 7.25 8C7.11193 8 7 8.11193 7 8.25C7 8.38807 7.11193 8.5 7.25 8.5Z" fill="black" fill-opacity="0.85"/>
<path fill-rule="evenodd" clip-rule="evenodd" d="M1.5 5C1.5 3.89543 2.39543 3 3.5 3H20.5C21.6046 3 22.5 3.89543 22.5 5V19C22.5 19.1381 22.486 19.2729 22.4594 19.4031C22.4183 19.6035 22.3473 19.7931 22.2512 19.9668C21.9104 20.5829 21.2539 21 20.5 21H3.5C2.39543 21 1.5 20.1046 1.5 19M20.5 14.9764V5H3.5V14.5858L6.79289 11.2929C7.1532 10.9326 7.7268 10.9008 8.12469 11.2192L9.86985 12.6153L12.2407 9.84924C12.5861 9.44636 13.1859 9.38334 13.6075 9.70567L20.5 14.9764Z" fill="black" fill-opacity="0.85"/>
</svg>
