<svg width="14" height="14" viewBox="0 0 14 14" fill="none" xmlns="http://www.w3.org/2000/svg">
<path d="M0 2.8C0 1.2536 1.2536 0 2.8 0H11.2C12.7464 0 14 1.2536 14 2.8V11.2C14 12.7464 12.7464 14 11.2 14H2.8C1.2536 14 0 12.7464 0 11.2V2.8Z" fill="#C8C9CA"/>
<path d="M7.31342 3.51911C7.25418 3.39974 7.13228 3.32437 6.99901 3.32471C6.86575 3.32505 6.74424 3.40105 6.6856 3.52072L5.6971 5.53842L3.44993 5.86427C3.31816 5.88338 3.20864 5.9756 3.16738 6.1022C3.12612 6.2288 3.16027 6.36784 3.25548 6.46092L4.88378 8.05281L4.49496 10.2641C4.47178 10.3959 4.52582 10.5294 4.63417 10.608C4.74253 10.6866 4.88621 10.6965 5.00433 10.6336L6.99993 9.56969L8.99598 10.6336C9.11403 10.6965 9.25761 10.6866 9.36594 10.6081C9.47427 10.5297 9.52839 10.3963 9.50539 10.2645L9.11936 8.05282L10.745 6.46071C10.8401 6.36762 10.8742 6.22868 10.8329 6.10219C10.7917 5.97569 10.6823 5.88351 10.5507 5.86431L8.31561 5.53841L7.31342 3.51911Z" fill="white"/>
</svg>
