<svg width="24" height="24" viewBox="0 0 24 24" fill="none" xmlns="http://www.w3.org/2000/svg">
<path fill-rule="evenodd" clip-rule="evenodd" d="M10.5 1C5.25332 1 1 5.25332 1 10.5C1 15.7467 5.25332 20 10.5 20C12.7631 20 14.8415 19.2086 16.4733 17.8875L20.1464 21.5606C20.5369 21.9511 21.1701 21.9511 21.5606 21.5606C21.9511 21.1701 21.9511 20.5369 21.5606 20.1464L17.8875 16.4733C19.2086 14.8415 20 12.7631 20 10.5C20 5.25332 15.7467 1 10.5 1ZM10.5001 5C9.11967 5 7.86831 5.56072 6.96455 6.46442C6.57401 6.85493 6.57399 7.48809 6.9645 7.87863C7.35501 8.26917 7.98818 8.26919 8.37871 7.87868C8.92275 7.33468 9.67139 7 10.5001 7C11.3288 7 12.0774 7.33468 12.6214 7.87866C13.0119 8.26918 13.6451 8.26918 14.0356 7.87866C14.4261 7.48813 14.4261 6.85497 14.0356 6.46444C13.1319 5.56072 11.8805 5 10.5001 5Z" fill="black" fill-opacity="0.85"/>
</svg>
