<svg width="24" height="25" viewBox="0 0 24 25" fill="none" xmlns="http://www.w3.org/2000/svg">
<path d="M14 6C14 4.067 15.567 2.5 17.5 2.5C19.433 2.5 21 4.067 21 6C21 7.93298 19.433 9.5 17.5 9.5C16.5228 9.5 15.6392 9.09956 15.0043 8.45382L9.87306 11.5626C9.95579 11.861 10 12.1753 10 12.5C10 12.7917 9.96433 13.075 9.8971 13.3459L15.1211 16.4328C15.7455 15.8539 16.5814 15.5 17.5 15.5C19.433 15.5 21 17.067 21 19C21 20.933 19.433 22.5 17.5 22.5C15.567 22.5 14 20.933 14 19C14 18.7084 14.0357 18.425 14.1029 18.1542L8.87891 15.0673C8.25451 15.6461 7.41858 16 6.5 16C4.56702 16 3 14.433 3 12.5C3 10.567 4.56702 9 6.5 9C7.38447 9 8.19232 9.32808 8.80848 9.86918L14.0667 6.68343C14.0229 6.46239 14 6.23388 14 6Z" fill="black" fill-opacity="0.85"/>
</svg>
