<svg width="18" height="18" viewBox="0 0 18 18" fill="none" xmlns="http://www.w3.org/2000/svg">
<path fill-rule="evenodd" clip-rule="evenodd" d="M8.325 1.5C8.02861 1.5 7.76002 1.67455 7.63964 1.9454L5.1709 7.50007H3.8287C2.61253 7.48255 1.65669 8.46596 1.50677 9.57431C1.50226 9.60764 1.5 9.64122 1.5 9.67485V14.3998C1.5 14.4335 1.50226 14.4671 1.50677 14.5004C1.66345 15.6587 2.66076 16.5169 3.82875 16.4998H5.60962C5.61474 16.4999 5.61986 16.5 5.625 16.5H13.4648C14.5095 16.5095 15.4025 15.7493 15.5598 14.7161L16.4913 8.64117L16.4915 8.64004C16.584 8.03086 16.4042 7.41188 16 6.94695C15.5967 6.48319 15.0106 6.2194 14.3962 6.225H11.1V4.275C11.1 2.74241 9.85757 1.5 8.325 1.5ZM6.375 15H13.477C13.7761 15.0034 14.0321 14.7859 14.077 14.49L14.0772 14.4888L15.0085 8.41496C15.0347 8.24112 14.9834 8.06392 14.868 7.93118C14.7525 7.79837 14.5845 7.72295 14.4085 7.72495L14.4 7.72505L10.35 7.725C9.93579 7.725 9.6 7.38921 9.6 6.975V4.275C9.6 3.7296 9.25755 3.26419 8.77594 3.08204L6.375 8.48416V15Z" fill="#D71616"/>
</svg>
