<svg width="24" height="24" viewBox="0 0 24 24" fill="none" xmlns="http://www.w3.org/2000/svg">
<path d="M7 6C7 3.23858 9.23858 1 12 1C14.7614 1 17 3.23858 17 6C17 8.76142 14.7614 11 12 11C9.23858 11 7 8.76142 7 6Z" fill="black" fill-opacity="0.85"/>
<path d="M12 12C6.47717 12 2 16.4772 2 22C2 22.5523 2.44772 23 3 23C3.55228 23 4 22.5523 4 22C4 17.5817 7.58173 14 12 14C16.4183 14 20 17.5817 20 22C20 22.5523 20.4477 23 21 23C21.5523 23 22 22.5523 22 22C22 16.4772 17.5228 12 12 12Z" fill="black" fill-opacity="0.85"/>
</svg>
